<?xml version="1.0" encoding="UTF-8"?>
<svg version="1.1" xmlns="http://www.w3.org/2000/svg" width="1024" height="1024">
<path d="M0 0 C7.88465804 0.8109934 15.63357754 0.25115006 23.52246094 -0.38305664 C24.52696289 -0.44614014 25.53146484 -0.50922363 26.56640625 -0.57421875 C27.46818604 -0.64342529 28.36996582 -0.71263184 29.29907227 -0.78393555 C32.64014818 -0.31167868 33.67754281 0.9576323 35.75 3.5625 C36.84667969 5.63720703 36.84667969 5.63720703 37.671875 7.8203125 C37.97480469 8.61050781 38.27773438 9.40070313 38.58984375 10.21484375 C39.04037109 11.43880859 39.04037109 11.43880859 39.5 12.6875 C39.81582031 13.51121094 40.13164063 14.33492188 40.45703125 15.18359375 C42.75 21.24854573 42.75 21.24854573 42.75 23.5625 C43.41 23.8925 44.07 24.2225 44.75 24.5625 C45.4609375 26.4609375 45.4609375 26.4609375 46.125 28.9375 C47.50089039 33.83425862 49.17733078 38.5581587 50.98046875 43.3125 C51.75 45.5625 51.75 45.5625 51.75 47.5625 C52.41 47.8925 53.07 48.2225 53.75 48.5625 C54.35986328 50.21484375 54.35986328 50.21484375 54.9453125 52.5 C57.27714963 60.72110868 60.5292133 68.60639938 63.625 76.5625 C64.29910385 78.30345984 64.97276234 80.04459218 65.64599609 81.78588867 C66.67669962 84.45159799 67.70766951 87.11720064 68.74002075 89.78227234 C71.70850705 97.44584408 74.6506843 105.11927469 77.58178711 112.79721069 C78.3802734 114.88881346 79.17931732 116.98020241 79.97851562 119.0715332 C81.83353141 123.92599781 83.68764054 128.78080855 85.54174805 133.63562012 C87.40233777 138.507269 89.2633565 143.3787537 91.125 148.25 C91.52262543 149.29046982 91.52262543 149.29046982 91.92828369 150.35195923 C96.67027439 162.75810493 101.43633809 175.15492873 106.2074585 187.54989624 C110.56923063 198.88201135 114.91768093 210.21909331 119.25 221.5625 C125.519323 237.97676277 131.82548712 254.3767588 138.13885498 270.77412415 C140.01295393 275.64307608 141.88160485 280.51407967 143.74609375 285.38671875 C144.19573486 286.56041016 144.64537598 287.73410156 145.10864258 288.94335938 C145.91327922 291.0443809 146.71664868 293.1458885 147.51831055 295.24804688 C149.40452725 300.1691297 151.33467135 305.071261 153.3203125 309.953125 C153.70719238 310.90606445 154.09407227 311.85900391 154.49267578 312.84082031 C156.14179239 316.41059738 158.21772932 319.54232125 160.515625 322.72265625 C161.75 324.5625 161.75 324.5625 162.75 327.5625 C164.57028557 328.6529124 164.57028557 328.6529124 166.75 329.5625 C168.98395857 330.84532773 171.21109346 332.13882782 173.43359375 333.44140625 C177.2436983 335.28541975 180.86920235 335.69607284 185.0625 335.625 C186.279375 335.604375 187.49625 335.58375 188.75 335.5625 C189.63809097 339.36860417 189.8846183 342.90747067 189.875 346.8125 C189.87757813 347.86953125 189.88015625 348.9265625 189.8828125 350.015625 C189.75 352.5625 189.75 352.5625 188.75 353.5625 C180.17703912 354.6362528 171.5342328 354.70761028 162.90722656 354.69189453 C161.69749176 354.69364685 160.48775696 354.69539917 159.24136353 354.69720459 C155.96942927 354.70081494 152.69753644 354.7000222 149.42560291 354.6968255 C145.98814122 354.69426975 142.55068203 354.69664767 139.11322021 354.69821167 C133.35737622 354.70002112 127.60154515 354.69765631 121.84570312 354.69287109 C115.18747697 354.68739969 108.5292813 354.68921675 101.87105584 354.6946975 C96.13918809 354.69922669 90.40732954 354.69988107 84.67546058 354.69725883 C81.25786065 354.69569896 77.8402751 354.695495 74.42267609 354.69879532 C70.62844227 354.70131831 66.83426838 354.69748775 63.04003906 354.69189453 C61.33682999 354.69493088 61.33682999 354.69493088 59.59921265 354.69802856 C58.06029861 354.69379883 58.06029861 354.69379883 56.49029541 354.68948364 C55.5936832 354.68910662 54.697071 354.68872959 53.77328873 354.68834114 C51.75 354.5625 51.75 354.5625 50.75 353.5625 C50.48568074 350.91049677 50.28125133 348.28357035 50.125 345.625 C50.04765625 344.5122168 50.04765625 344.5122168 49.96875 343.37695312 C49.62562424 337.81125151 49.62562424 337.81125151 50.75 335.5625 C51.41644531 335.60890625 52.08289063 335.6553125 52.76953125 335.703125 C62.31594999 336.07697077 70.52675954 334.08671719 77.75 327.5625 C78.41 327.5625 79.07 327.5625 79.75 327.5625 C86.08828518 313.45575246 78.00495609 297.84625062 73.125 284.25 C72.49713411 282.4799208 71.87002445 280.70957319 71.24365234 278.93896484 C68.46686936 271.10405625 65.65382862 263.28222535 62.828125 255.46484375 C62.40740723 254.30057861 61.98668945 253.13631348 61.55322266 251.93676758 C60.78630375 249.8217813 60.01535188 247.70825164 59.23974609 245.59643555 C58.90539551 244.68031494 58.57104492 243.76419434 58.2265625 242.8203125 C57.93861816 242.0380127 57.65067383 241.25571289 57.35400391 240.44970703 C56.75 238.5625 56.75 238.5625 56.75 236.5625 C16.49 236.8925 -23.77 237.2225 -65.25 237.5625 C-73.665 260.8275 -73.665 260.8275 -82.25 284.5625 C-84.56 290.8325 -86.87 297.1025 -89.25 303.5625 C-90.24046757 307.52437029 -90.48527044 310.8646569 -90.5625 314.9375 C-90.59988281 316.22398437 -90.63726562 317.51046875 -90.67578125 318.8359375 C-90.1774916 323.19711481 -89.04775241 325.2168342 -86.25 328.5625 C-77.81934848 334.87782441 -69.50068224 335.86106356 -59.25 335.5625 C-58.22614815 339.62734466 -58.276209 343.1458616 -58.625 347.3125 C-58.71523438 348.46234375 -58.80546875 349.6121875 -58.8984375 350.796875 C-59.25 353.5625 -59.25 353.5625 -60.25 354.5625 C-61.87640114 354.65961993 -63.5070477 354.68621585 -65.13634586 354.68554783 C-66.20077256 354.68753888 -67.26519926 354.68952993 -68.36188132 354.69158131 C-69.5457077 354.68866847 -70.72953409 354.68575563 -71.94923401 354.68275452 C-73.1955719 354.68360894 -74.4419098 354.68446337 -75.72601551 354.68534368 C-79.20124764 354.68759098 -82.67644925 354.68356418 -86.15167749 354.67856562 C-89.89334451 354.67426465 -93.63500967 354.67570729 -97.37667847 354.6764679 C-103.86461867 354.67699336 -110.35254885 354.67384426 -116.84048653 354.66823006 C-126.22106352 354.66011803 -135.60163564 354.65750014 -144.98221575 354.65624207 C-160.19997927 354.65405108 -175.41773744 354.64738972 -190.63549805 354.63793945 C-205.42195611 354.62876655 -220.20841272 354.62168512 -234.99487305 354.61743164 C-236.36102944 354.61703756 -236.36102944 354.61703756 -237.75478495 354.61663551 C-242.32365604 354.61533051 -246.89252714 354.61406679 -251.46139824 354.61282361 C-289.39093591 354.60244953 -327.3204676 354.58482995 -365.25 354.5625 C-367.375 347.8125 -367.375 347.8125 -366.25 345.5625 C-366.20571559 344.20905763 -366.21069412 342.8535961 -366.25 341.5 C-366.25 337.5625 -366.25 337.5625 -365.25 336.5625 C-363.47992286 336.48135894 -361.70877902 336.42324495 -359.9375 336.375 C-351.51177982 335.72223264 -343.6322993 332.54951081 -337.75 326.3125 C-332.17916657 318.53852858 -330.65805993 310.76761793 -330.74879456 301.36682129 C-330.74326016 300.28319132 -330.73772576 299.19956136 -330.73202366 298.08309412 C-330.71847965 294.47508016 -330.73335308 290.86776545 -330.74829102 287.25976562 C-330.74450559 284.66370857 -330.73900371 282.06765354 -330.73191833 279.47160339 C-330.71802605 273.1662564 -330.72551221 266.86111046 -330.74059392 260.55577314 C-330.75750427 253.20445001 -330.75423742 245.85317627 -330.75049984 238.5018397 C-330.7446286 225.38025499 -330.75876383 212.25876641 -330.78344727 199.13720703 C-330.80736587 186.42069903 -330.81445058 173.70431943 -330.80395508 160.98779297 C-330.79253144 147.12198021 -330.79063366 133.25622677 -330.80505317 119.39041471 C-330.80657892 117.91031615 -330.80809928 116.43021759 -330.80961418 114.95011902 C-330.810372 114.2219868 -330.81112981 113.49385457 -330.81191059 112.74365774 C-330.81664225 107.62611866 -330.81480993 102.50860617 -330.81054878 97.3910675 C-330.80509173 90.49631592 -330.8159199 83.60174461 -330.83750343 76.70702553 C-330.84305864 74.17950857 -330.84354827 71.65197453 -330.83855057 69.12445641 C-330.83257559 65.66883507 -330.84514608 62.21375168 -330.86231995 58.75817871 C-330.8563099 57.76302702 -330.85029986 56.76787534 -330.84410769 55.74256754 C-330.93467383 45.68961973 -333.08056738 36.90525956 -340.25 29.5625 C-346.82344499 23.58664091 -353.5657678 22.34099377 -362.25 21.5625 C-362.25 22.2225 -362.25 22.8825 -362.25 23.5625 C-363.24 23.5625 -364.23 23.5625 -365.25 23.5625 C-366.25 18.5625 -366.25 18.5625 -366.25 3.5625 C-244.975 3.0675 -244.975 3.0675 -121.25 2.5625 C-120.36161538 7.00442308 -120.11439784 10.99080915 -120.13647461 15.47387695 C-120.13632858 16.25489273 -120.13618256 17.03590851 -120.1360321 17.84059143 C-120.1367263 20.41068339 -120.14449554 22.98070202 -120.15234375 25.55078125 C-120.15420968 27.33725444 -120.15563276 29.12372814 -120.15663147 30.91020203 C-120.16044284 35.60374371 -120.17026133 40.29725427 -120.18133545 44.99078369 C-120.19157925 49.78356505 -120.19613545 54.57635146 -120.20117188 59.36914062 C-120.21188486 68.76694073 -120.22894469 78.16471777 -120.25 87.5625 C-122.625 88.625 -122.625 88.625 -125.25 89.5625 C-125.91 89.2325 -126.57 88.9025 -127.25 88.5625 C-128.95702735 88.49253986 -130.66668003 88.47809846 -132.375 88.5 C-133.28507813 88.50902344 -134.19515625 88.51804687 -135.1328125 88.52734375 C-136.18082031 88.54474609 -136.18082031 88.54474609 -137.25 88.5625 C-139.03742226 84.47583852 -140.06820961 80.32945697 -141.0625 76 C-143.68362302 65.15718033 -147.51256625 55.54000123 -154.25 46.5625 C-155.17619141 45.30953125 -155.17619141 45.30953125 -156.12109375 44.03125 C-163.51310349 35.45923137 -175.34504117 31.37110745 -186.25 29.5625 C-188.86436625 29.44761312 -191.45470451 29.37807274 -194.06958008 29.35717773 C-194.85324542 29.34714501 -195.63691076 29.33711229 -196.44432354 29.32677555 C-198.96936317 29.29550958 -201.49441857 29.27066872 -204.01953125 29.24609375 C-205.58313495 29.22767931 -207.14673372 29.20884205 -208.71032715 29.1895752 C-214.49432654 29.12126191 -220.27842015 29.06112317 -226.0625 29 C-245.4603125 28.7834375 -245.4603125 28.7834375 -265.25 28.5625 C-265.25 72.7825 -265.25 117.0025 -265.25 162.5625 C-227.66509396 164.53653822 -227.66509396 164.53653822 -191 153.4375 C-184.04487465 146.16623259 -181.16608895 138.30836251 -179.25 128.5625 C-178.92 126.9125 -178.59 125.2625 -178.25 123.5625 C-172.64 123.5625 -167.03 123.5625 -161.25 123.5625 C-160.47269284 126.67172863 -160.13144642 128.60972923 -160.16770935 131.68804932 C-160.17474884 132.50130676 -160.18178833 133.31456421 -160.18904114 134.15246582 C-160.20198715 135.03575562 -160.21493317 135.91904541 -160.22827148 136.82910156 C-160.23787903 137.76602844 -160.24748657 138.70295532 -160.25738525 139.66827393 C-160.29035047 142.76330132 -160.33069239 145.85818648 -160.37109375 148.953125 C-160.39539728 151.0997467 -160.41924072 153.24637365 -160.44264221 155.39300537 C-160.50545993 161.04176826 -160.57453323 166.69043807 -160.64489746 172.33911133 C-160.71560172 178.10363528 -160.78040618 183.86822521 -160.84570312 189.6328125 C-160.97468569 200.94278083 -161.11027517 212.25265963 -161.25 223.5625 C-162.69493092 223.73423441 -164.14023614 223.9028216 -165.58569336 224.07006836 C-166.39050644 224.16428574 -167.19531952 224.25850311 -168.02452087 224.35557556 C-171.59139025 224.6872221 -174.73132227 224.13828363 -178.25 223.5625 C-178.57871094 222.12970703 -178.57871094 222.12970703 -178.9140625 220.66796875 C-181.93108199 208.11253865 -185.99101554 197.00994058 -197.25 189.5625 C-204.10577515 186.32740171 -211.00942098 184.48630548 -218.59106445 184.35717773 C-219.6317659 184.33723251 -220.67246735 184.31728729 -221.7447052 184.29673767 C-222.8563353 184.28002518 -223.96796539 184.26331268 -225.11328125 184.24609375 C-226.26040085 184.22531265 -227.40752045 184.20453156 -228.58940125 184.18312073 C-232.24704098 184.11783381 -235.90475138 184.05883714 -239.5625 184 C-242.04492913 183.95679496 -244.52735116 183.91318003 -247.00976562 183.86914062 C-253.08976945 183.76217378 -259.16984329 183.66036886 -265.25 183.5625 C-265.16600285 199.59201287 -265.07083387 215.6214148 -264.96247292 231.65077972 C-264.91241435 239.09398863 -264.86597084 246.5371869 -264.828125 253.98046875 C-264.79511791 260.4702735 -264.75523895 266.959994 -264.70720994 273.4497056 C-264.68203131 276.88392148 -264.6602249 280.3180821 -264.64665604 283.75236511 C-264.62975503 287.59219398 -264.60070965 291.43175452 -264.56884766 295.27148438 C-264.56668747 296.40221375 -264.56452728 297.53294312 -264.56230164 298.69793701 C-264.5169206 309.10365446 -264.5169206 309.10365446 -260.1875 318.3125 C-250.01050089 326.10764825 -238.84483138 325.72406643 -226.5390625 325.765625 C-225.88484692 325.76845238 -225.23063133 325.77127975 -224.55659103 325.77419281 C-221.08638875 325.78911779 -217.61622724 325.7983864 -214.14599609 325.80273438 C-211.31643635 325.80709849 -208.48718505 325.82091845 -205.65771484 325.84375 C-177.70050286 326.06480947 -151.03347028 325.30532454 -129.42578125 304.92578125 C-119.28426408 293.91030928 -114.75916132 280.41438827 -109.71777344 266.57666016 C-107.25589612 259.82333535 -104.71336166 253.09987305 -102.18618774 246.37078857 C-101.24516934 243.86212192 -100.30718597 241.35233841 -99.36987305 238.84228516 C-95.74713003 229.15057098 -92.07620335 219.47876075 -88.35546875 209.82421875 C-87.94539581 208.75907547 -87.53532288 207.69393219 -87.11282349 206.59651184 C-85.10285984 201.37744073 -83.08764598 196.16048998 -81.06445312 190.9465332 C-80.32795076 189.03733934 -79.59161446 187.12808141 -78.85546875 185.21875 C-78.35179024 183.92906563 -78.35179024 183.92906563 -77.8379364 182.61332703 C-75.92819594 177.64430763 -74.43406487 172.75402553 -73.25 167.5625 C-72.59 167.5625 -71.93 167.5625 -71.25 167.5625 C-71.07639954 166.95786423 -70.90279907 166.35322845 -70.72393799 165.73027039 C-68.91013032 159.5347343 -66.82920827 153.49398021 -64.546875 147.45703125 C-64.19264969 146.51245056 -63.83842438 145.56786987 -63.47346497 144.59466553 C-62.3191787 141.52010101 -61.15983768 138.4474742 -60 135.375 C-59.18472308 133.20893739 -58.36953876 131.04283991 -57.55444336 128.87670898 C-48.61078731 105.13443551 -39.48123721 81.46551415 -30.3046875 57.8125 C-29.88019821 56.71824203 -29.45570892 55.62398407 -29.01835632 54.49656677 C-26.93727802 49.13251468 -24.8549285 43.76896363 -22.76977539 38.40649414 C-19.40150391 29.73935494 -16.0382009 21.07047551 -12.75390625 12.37109375 C-12.28927979 11.14060303 -11.82465332 9.9101123 -11.34594727 8.64233398 C-10.23936941 5.71479915 -10.23936941 5.71479915 -9.7019043 3.21679688 C-9.25 1.5625 -9.25 1.5625 -7.515625 0.28515625 C-4.72812349 -0.60396061 -2.90224994 -0.38458777 0 0 Z M-5.25 63.5625 C-5.44885803 64.12593109 -5.64771606 64.68936218 -5.8526001 65.26986694 C-6.46433406 67.00311317 -7.07606921 68.73635897 -7.68780518 70.46960449 C-8.41824171 72.53918158 -9.1486695 74.60876175 -9.87908936 76.67834473 C-11.91007651 82.43293259 -13.94122141 88.18746469 -15.97265625 93.94189453 C-19.66726822 104.40805283 -23.36108771 114.87448031 -27.046875 125.34375 C-27.86187506 127.65751339 -28.67695367 129.9712491 -29.49206543 132.28497314 C-29.99415581 133.71090499 -30.49586973 135.13696945 -30.99719238 136.56317139 C-31.68469906 138.51900534 -32.37346346 140.4743921 -33.0625 142.4296875 C-33.44019531 143.50331543 -33.81789063 144.57694336 -34.20703125 145.68310547 C-34.84130622 147.43419137 -35.49735692 149.17785112 -36.19198608 150.90588379 C-37.25314389 153.57039414 -38.24614211 156.25060394 -39.22119141 158.94775391 C-39.60143463 159.99879303 -39.98167786 161.04983215 -40.3734436 162.13272095 C-42.09014223 166.89419956 -43.80598559 171.65597961 -45.51855469 176.41894531 C-46.42379335 178.93585674 -47.33178656 181.4517482 -48.2421875 183.96679688 C-49.55406514 187.59341816 -50.85975467 191.22221295 -52.1640625 194.8515625 C-52.5733902 195.97970367 -52.9827179 197.10784485 -53.40444946 198.27017212 C-53.77838837 199.31490692 -54.15232727 200.35964172 -54.53759766 201.43603516 C-54.86909821 202.3558316 -55.20059875 203.27562805 -55.54214478 204.22329712 C-56.39481741 206.63374233 -56.39481741 206.63374233 -56.25 209.5625 C-22.59 209.5625 11.07 209.5625 45.75 209.5625 C45.24112447 202.07187473 45.24112447 202.07187473 41.75 195.5625 C41.28177642 193.94608485 40.8510888 192.31874969 40.4375 190.6875 C39.098084 185.63334899 37.45231307 180.76866819 35.6171875 175.875 C34.95811961 174.11748562 34.34356779 172.34320338 33.75 170.5625 C33.00323057 168.45718464 32.25267775 166.3532103 31.5 164.25 C31.0565625 163.00992188 30.613125 161.76984375 30.15625 160.4921875 C29.68753692 159.18227846 29.21878652 157.87238277 28.75 156.5625 C27.83296802 154.00013026 26.91635965 151.43761041 26 148.875 C25.59265625 147.73675781 25.1853125 146.59851563 24.765625 145.42578125 C24.07473243 143.47799566 23.40354428 141.52313284 22.75 139.5625 C22.2784501 138.22436998 21.8035495 136.88741881 21.32641602 135.55126953 C21.0381041 134.74321365 20.74979218 133.93515778 20.45274353 133.10261536 C20.13962723 132.22570541 19.82651093 131.34879547 19.50390625 130.4453125 C18.82885214 128.55187009 18.15388832 126.65839548 17.47900391 124.76489258 C16.39248316 121.71692963 15.30589851 118.6689897 14.21893311 115.6211853 C10.60979849 105.49690269 7.00113498 95.37357815 3.53515625 85.19921875 C3.30137772 84.5139209 3.06759918 83.82862305 2.82673645 83.12255859 C1.765671 80.0072939 0.7128404 76.88953982 -0.32983398 73.76806641 C-0.87426147 72.1600415 -0.87426147 72.1600415 -1.4296875 70.51953125 C-1.73632324 69.60147705 -2.04295898 68.68342285 -2.35888672 67.73754883 C-3.15170525 65.40329669 -3.15170525 65.40329669 -5.25 63.5625 Z " fill="#790B21" transform="translate(594.25,320.4375)"/>
<path d="M0 0 C0.99 0.33 1.98 0.66 3 1 C4.23536732 3.63388912 5.27523881 6.18767104 6.265625 8.9140625 C6.5756395 9.73860931 6.88565399 10.56315613 7.20506287 11.41268921 C8.23043311 14.14636399 9.23995217 16.88563098 10.25 19.625 C10.96462175 21.53693722 11.68053999 23.44839032 12.39770508 25.359375 C13.87735417 29.30353891 15.35236832 33.24939094 16.82470703 37.19628906 C19.74770238 45.01459294 22.74853786 52.80253486 25.75622559 60.58856201 C27.31325988 64.62033995 28.86553725 68.653948 30.41796875 72.6875 C30.71978058 73.47144135 31.02159241 74.25538269 31.33255005 75.06307983 C34.40140184 83.03707632 37.4516064 91.01816541 40.5 99 C44.91369796 110.55396051 49.33739399 122.10404257 53.77462769 133.64898682 C54.73795963 136.15616362 55.70016607 138.6637705 56.66235352 141.17138672 C59.38665663 148.26396207 62.1249155 155.34890754 64.94921875 162.40234375 C65.37686523 163.47395752 65.80451172 164.54557129 66.24511719 165.6496582 C67.01023052 167.55883841 67.78240907 169.46521105 68.56347656 171.36791992 C68.89186523 172.18752197 69.22025391 173.00712402 69.55859375 173.8515625 C69.84017334 174.54072754 70.12175293 175.22989258 70.41186523 175.93994141 C71.103313 178.36187425 71.10076021 180.49382861 71 183 C68.2280572 181.6140286 68.0537051 179.74587592 67.09741211 176.93432617 C66.85901611 176.21349854 66.62062012 175.4926709 66.375 174.75 C61.75768751 161.2383621 56.70514111 147.88127517 51.140625 134.73046875 C47.47055951 125.94493525 44.2426051 116.9988705 41.14282227 107.99926758 C40.90748779 107.3214624 40.67215332 106.64365723 40.4296875 105.9453125 C40.12393799 105.05610107 40.12393799 105.05610107 39.81201172 104.14892578 C39.16003618 102.42352328 38.44464831 100.7221448 37.70947266 99.03051758 C35.36855613 93.61294996 33.31707117 88.08121162 31.21875 82.56640625 C30.76399292 81.3745018 30.30923584 80.18259735 29.84069824 78.95457458 C28.63745095 75.80002513 27.43546593 72.64500062 26.23406982 69.48974609 C25.25860636 66.92873884 24.28190727 64.36820374 23.30513763 61.80769444 C15.51103445 41.37586605 15.51103445 41.37586605 13.35180664 35.60571289 C12.11634575 32.31033239 10.85989793 29.02436175 9.58984375 25.7421875 C9.15736328 24.62199219 8.72488281 23.50179688 8.27929688 22.34765625 C7.38163161 20.02444105 6.48318864 17.70152621 5.58398438 15.37890625 C5.15279297 14.26128906 4.72160156 13.14367187 4.27734375 11.9921875 C3.88796631 10.98526855 3.49858887 9.97834961 3.09741211 8.94091797 C1.9931119 5.9815408 0.98077124 3.00233816 0 0 Z " fill="#56131A" transform="translate(673,443)"/>
<path d="M0 0 C0.66 0 1.32 0 2 0 C2.00331015 0.63684219 2.00662029 1.27368439 2.01003075 1.92982483 C2.09135413 17.44644173 2.18347695 32.96295161 2.28752708 48.47943115 C2.33758682 55.98317438 2.38403034 63.48690706 2.421875 70.99072266 C2.45488086 77.53326466 2.49475916 84.07572307 2.54279006 90.61817265 C2.5679699 94.08033424 2.58977597 97.542441 2.60334396 101.00466919 C2.6186427 104.87560899 2.64928891 108.74634693 2.68115234 112.6171875 C2.68331253 113.75726761 2.68547272 114.89734772 2.68769836 116.07197571 C2.69475177 126.56654152 2.69475177 126.56654152 7.1875 135.75 C10.33503293 138.26802635 13.44112618 140.11589033 17 142 C16.67 142.66 16.34 143.32 16 144 C9.74750017 141.30331114 5.22346524 139.31261944 2 133 C1.644023 132.39034267 1.288046 131.78068535 0.92128181 131.15255356 C-0.21266847 128.50310506 -0.24611203 126.5015827 -0.24050903 123.62164307 C-0.24325836 122.53071854 -0.24600769 121.43979401 -0.24884033 120.31581116 C-0.2380545 118.52801491 -0.2380545 118.52801491 -0.22705078 116.70410156 C-0.22734283 115.44530685 -0.22763489 114.18651215 -0.22793579 112.88957214 C-0.22850947 109.44151468 -0.21675276 105.99359644 -0.20278788 102.54557133 C-0.19028304 98.94076812 -0.18911021 95.33596169 -0.18673706 91.73114014 C-0.18052157 84.90658568 -0.16410982 78.08209531 -0.14403808 71.25756907 C-0.12168124 63.48737925 -0.11068619 55.71718636 -0.10064721 47.94697237 C-0.07974364 31.96461113 -0.04456632 15.98231383 0 0 Z " fill="#510913" transform="translate(327,503)"/>
<path d="M0 0 C0.79200844 2.7882812 1.11639168 5.23075057 1.08229065 8.12554932 C1.07525116 8.93880676 1.06821167 9.75206421 1.06095886 10.58996582 C1.04801285 11.47325562 1.03506683 12.35654541 1.02172852 13.26660156 C1.01212097 14.20352844 1.00251343 15.14045532 0.99261475 16.10577393 C0.95964953 19.20080132 0.91930761 22.29568648 0.87890625 25.390625 C0.85460272 27.5372467 0.83075928 29.68387365 0.80735779 31.83050537 C0.74454007 37.47926826 0.67546677 43.12793807 0.60510254 48.77661133 C0.53439828 54.54113528 0.46959382 60.30572521 0.40429688 66.0703125 C0.27531431 77.38028083 0.13972483 88.69015963 0 100 C-1.41465604 100.18139526 -2.8302089 100.35580358 -4.24609375 100.52734375 C-5.0342749 100.62523193 -5.82245605 100.72312012 -6.63452148 100.82397461 C-9.91751007 101.06827585 -12.77475564 100.61759998 -16 100 C-16 99.67 -16 99.34 -16 99 C-11.38 99 -6.76 99 -2 99 C-2 66.99 -2 34.98 -2 2 C-6.62 2 -11.24 2 -16 2 C-16 1.67 -16 1.34 -16 1 C-10.59255982 0.22750855 -5.46137814 -0.09752461 0 0 Z " fill="#40040D" transform="translate(433,444)"/>
<path d="M0 0 C0.93423645 3.01031744 1.04449911 3.86650268 0 7 C1.15099182 6.98747192 2.30198364 6.97494385 3.487854 6.96203613 C14.37405813 6.84362927 25.2602695 6.72590913 36.14648819 6.60884857 C41.74219381 6.54865568 47.33789666 6.48822708 52.93359375 6.42724609 C58.34117797 6.36832403 63.74876873 6.31003903 69.15636444 6.25218201 C71.21185294 6.23008058 73.26733905 6.20775575 75.32282257 6.18519592 C95.99093514 5.95863616 95.99093514 5.95863616 106 6 C105.67 6.99 105.34 7.98 105 9 C70.02 9 35.04 9 -1 9 C-2.125 3.375 -2.125 3.375 0 0 Z " fill="#4F0512" transform="translate(538,523)"/>
<path d="M0 0 C0.99 0 1.98 0 3 0 C3.26103516 0.76328613 3.52207031 1.52657227 3.79101562 2.31298828 C10.2541683 21.20630745 10.2541683 21.20630745 17 40 C24.4124422 60.18703638 31.26025075 80.57989881 38 101 C37.01 101.495 37.01 101.495 36 102 C35.79842285 101.44538086 35.5968457 100.89076172 35.38916016 100.31933594 C34.47023282 97.79532071 33.54765465 95.27265497 32.625 92.75 C32.30789063 91.87730469 31.99078125 91.00460937 31.6640625 90.10546875 C31.3546875 89.26113281 31.0453125 88.41679687 30.7265625 87.546875 C30.44377441 86.77182617 30.16098633 85.99677734 29.86962891 85.19824219 C29.04363893 83.0025594 29.04363893 83.0025594 27.9699707 81.00927734 C26.89955303 78.79192587 26.33714694 76.6962321 25.75390625 74.3046875 C23.87015014 67.18670474 21.32662946 60.34092234 18.78747559 53.4369812 C17.33126157 49.47599752 15.89011362 45.50954598 14.44921875 41.54296875 C14.15886749 40.74425858 13.86851624 39.9455484 13.56936646 39.12263489 C10.71637929 31.2549937 7.96544501 23.35351792 5.25 15.4375 C4.83226318 14.2201416 4.41452637 13.0027832 3.98413086 11.74853516 C2.64496622 7.8359684 1.30773081 3.92319243 0 0 Z " fill="#57141C" transform="translate(589,383)"/>
<path d="M0 0 C0.99 0.33 1.98 0.66 3 1 C3.80859375 2.8984375 3.80859375 2.8984375 4.4375 5.375 C5.7680459 10.28669602 7.42658326 14.9936877 9.23046875 19.75 C10 22 10 22 10 24 C10.66 24.33 11.32 24.66 12 25 C12.59667969 26.6171875 12.59667969 26.6171875 13.171875 28.875 C15.60357004 37.4560191 19.02224705 45.69488287 22.25 54 C22.90007902 55.68085834 23.54982066 57.36184721 24.19921875 59.04296875 C24.84634355 60.71614994 25.49347893 62.38932704 26.140625 64.0625 C26.45817749 64.88484131 26.77572998 65.70718262 27.10290527 66.55444336 C28.72375671 70.7426889 30.36534107 74.92086579 32.04492188 79.0859375 C32.37087341 79.9018335 32.69682495 80.71772949 33.03265381 81.55834961 C33.64978662 83.10108268 34.2736177 84.64115968 34.90533447 86.17797852 C36.39068203 89.90853819 37.38086785 92.9663529 37 97 C35 96 35 96 34.25732422 94.38378906 C34.0254541 93.68479492 33.79358398 92.98580078 33.5546875 92.265625 C33.28640137 91.47422119 33.01811523 90.68281738 32.74169922 89.86743164 C32.45568848 89.0036792 32.16967773 88.13992676 31.875 87.25 C29.34100782 79.79973933 26.69535228 72.40934359 23.875 65.0625 C23.36984863 63.74620605 23.36984863 63.74620605 22.85449219 62.40332031 C22.2041409 60.71266225 21.5528151 59.02237864 20.90039062 57.33251953 C20.08150516 55.21114432 19.26629368 53.08841552 18.453125 50.96484375 C16.23180211 45.12544754 16.23180211 45.12544754 13.8671875 39.34375 C13 37 13 37 13 34 C12.34 34 11.68 34 11 34 C10.76925781 33.20078125 10.53851562 32.4015625 10.30078125 31.578125 C8.5926408 25.82581012 6.76667826 20.25724726 4.375 14.75 C2.26037936 9.85709316 0.96023365 5.23763809 0 0 Z " fill="#56121A" transform="translate(636,344)"/>
<path d="M0 0 C0.33 0 0.66 0 1 0 C1.33 2.97 1.66 5.94 2 9 C31.04 9.33 60.08 9.66 90 10 C85.60196842 12.19901579 82.41592132 12.27042953 77.65136719 12.22705078 C76.81197601 12.22734283 75.97258484 12.22763489 75.10775757 12.22793579 C72.33735769 12.22654409 69.56722781 12.21099039 66.796875 12.1953125 C64.87445218 12.1915818 62.95202745 12.1887351 61.02960205 12.18673706 C55.97268412 12.17910508 50.91588128 12.15946027 45.85900879 12.1373291 C40.69768836 12.11686134 35.53634932 12.10773335 30.375 12.09765625 C20.24994946 12.07621401 10.12498431 12.04208326 0 12 C0 8.04 0 4.08 0 0 Z " fill="#6F262B" transform="translate(646,663)"/>
<path d="M0 0 C0.33 0 0.66 0 1 0 C1.14575877 7.25091308 1.28769357 14.50189454 1.42724609 21.75292969 C1.47491472 24.20802415 1.52338763 26.66310315 1.57275391 29.11816406 C1.89974533 45.41434869 2.07386663 61.70047629 2 78 C0.515 78.495 0.515 78.495 -1 79 C-1.02334243 70.76684615 -1.04102528 62.53370651 -1.05181217 54.30052757 C-1.05699368 50.47605583 -1.06400348 46.651607 -1.07543945 42.82714844 C-1.08643889 39.12480067 -1.0923123 35.42247471 -1.09487724 31.72011185 C-1.09670119 30.31938967 -1.1002614 28.91866847 -1.10573006 27.51795578 C-1.14028176 18.28679035 -0.78743565 9.19599391 0 0 Z " fill="#42050F" transform="translate(472,328)"/>
<path d="M0 0 C10.89071988 -0.6633941 18.28828861 1.31426801 27 8 C33.49847499 15.07186984 35.71724668 21.66628174 37 31 C36.34 31 35.68 31 35 31 C34.78085937 30.154375 34.56171875 29.30875 34.3359375 28.4375 C31.4531189 18.12497819 27.87778132 10.99832795 18.65625 5.1875 C13.68312768 2.96422179 8.38326009 2.48257973 3 2 C3 2.66 3 3.32 3 4 C2.01 4 1.02 4 0 4 C0 2.68 0 1.36 0 0 Z " fill="#621C22" transform="translate(229,340)"/>
<path d="M0 0 C0.33 0 0.66 0 1 0 C1.02578125 0.86882813 1.0515625 1.73765625 1.078125 2.6328125 C1.32831424 11.64032609 1.32831424 11.64032609 6 19 C13.88528389 24.48335373 22.52020561 27.13820051 32 28 C32 32.62 32 37.24 32 42 C31.67 42 31.34 42 31 42 C31 37.71 31 33.42 31 29 C29.618125 29.103125 28.23625 29.20625 26.8125 29.3125 C18.06307714 29.32496357 9.4685139 25.85406094 3 20 C-0.72144603 15.42615572 -1.22808072 11.29160648 -0.75 5.5 C-0.52273634 3.66370963 -0.28043519 1.82892515 0 0 Z " fill="#55131A" transform="translate(502,630)"/>
<path d="M0 0 C0.99 0.33 1.98 0.66 3 1 C-3.90725471 10.01780476 -12.75832466 16.23755838 -22.9375 21.0625 C-23.56390381 21.3615625 -24.19030762 21.660625 -24.83569336 21.96875 C-28.3540073 23.54988719 -31.14106124 24.34415583 -35 24 C-33.49051919 20.98103837 -31.26703222 20.89557699 -28.125 19.8125 C-18.58687615 16.24353024 -4.81180412 9.62360823 0 0 Z " fill="#58131A" transform="translate(468,621)"/>
<path d="M0 0 C2.69775684 2.69775684 3.44341576 5.79703638 4.6015625 9.34375 C4.8428891 10.06864624 5.0842157 10.79354248 5.33285522 11.54040527 C5.8416092 13.07270784 6.34744718 14.6059812 6.85058594 16.14013672 C7.62266998 18.49289976 8.40430747 20.84232063 9.1875 23.19140625 C9.68025434 24.67949992 10.17246052 26.16777524 10.6640625 27.65625 C10.89839996 28.36148804 11.13273743 29.06672607 11.37417603 29.79333496 C13 34.76784928 13 34.76784928 13 37 C12.34 37 11.68 37 11 37 C9.45428722 34.68143083 8.20381448 32.49361571 7 30 C7.33 29.67 7.66 29.34 8 29 C7.79318604 28.44538086 7.58637207 27.89076172 7.37329102 27.31933594 C6.43415472 24.79703897 5.49829667 22.2735378 4.5625 19.75 C4.23701172 18.87730469 3.91152344 18.00460937 3.57617188 17.10546875 C3.26357422 16.26113281 2.95097656 15.41679687 2.62890625 14.546875 C2.34088135 13.77182617 2.05285645 12.99677734 1.75610352 12.19824219 C1.04938716 10.14358477 0.49097939 8.11524119 0 6 C-0.20625 5.113125 -0.4125 4.22625 -0.625 3.3125 C-0.74875 2.549375 -0.8725 1.78625 -1 1 C-0.67 0.67 -0.34 0.34 0 0 Z " fill="#5B171F" transform="translate(627,485)"/>
<path d="M0 0 C1.30200195 2.03125 1.30200195 2.03125 2.23828125 4.5 C2.58310547 5.386875 2.92792969 6.27375 3.28320312 7.1875 C3.62287109 8.115625 3.96253906 9.04375 4.3125 10 C4.85100586 11.3921875 4.85100586 11.3921875 5.40039062 12.8125 C8 19.62595238 8 19.62595238 8 22 C7.34 22 6.68 22 6 22 C2.92239335 16.2844448 0.8454318 10.6759657 -0.97265625 4.44140625 C-1.31167969 3.63574219 -1.65070312 2.83007812 -2 2 C-4.9195043 1.0268319 -7.05444951 0.8070454 -10.10546875 0.68359375 C-11.57983398 0.62075195 -11.57983398 0.62075195 -13.08398438 0.55664062 C-14.10814453 0.51732422 -15.13230469 0.47800781 -16.1875 0.4375 C-17.22326172 0.39431641 -18.25902344 0.35113281 -19.32617188 0.30664062 C-21.8839819 0.20055634 -24.44188845 0.09849854 -27 0 C-27 -0.33 -27 -0.66 -27 -1 C-23.43842366 -1.22677207 -19.87584575 -1.42815479 -16.3125 -1.625 C-15.30509766 -1.68945312 -14.29769531 -1.75390625 -13.25976562 -1.8203125 C-12.28330078 -1.871875 -11.30683594 -1.9234375 -10.30078125 -1.9765625 C-9.40528564 -2.02893066 -8.50979004 -2.08129883 -7.5871582 -2.13525391 C-4.57755979 -1.97791527 -2.63766855 -1.46555738 0 0 Z " fill="#742C30" transform="translate(629,322)"/>
<path d="M0 0 C2.46209717 3.74502903 2.06276467 6.8244831 1.6875 11.1875 C1.58824219 12.43917969 1.48898437 13.69085937 1.38671875 14.98046875 C1 18 1 18 0 19 C-2.3756852 19.0883967 -4.72208674 19.11530305 -7.09765625 19.09765625 C-8.16094398 19.09553383 -8.16094398 19.09553383 -9.24571228 19.09336853 C-11.51801712 19.08775443 -13.79022475 19.07519963 -16.0625 19.0625 C-17.59960796 19.05748681 -19.13671745 19.05292359 -20.67382812 19.04882812 C-24.44925642 19.03778042 -28.22461171 19.02050641 -32 19 C-32 18.67 -32 18.34 -32 18 C-21.77 17.34 -11.54 16.68 -1 16 C-0.67 11.38 -0.34 6.76 0 2 C-2.64 2 -5.28 2 -8 2 C-8 1.67 -8 1.34 -8 1 C-5.36 0.67 -2.72 0.34 0 0 Z " fill="#86353B" transform="translate(534,656)"/>
<path d="M0 0 C4.95 0.33 9.9 0.66 15 1 C11.79619983 3.13586678 10.98060033 3.23132175 7.3125 3.125 C6.50425781 3.10695313 5.69601562 3.08890625 4.86328125 3.0703125 C3.94095703 3.03550781 3.94095703 3.03550781 3 3 C3.03480469 3.91523437 3.06960938 4.83046875 3.10546875 5.7734375 C3.13253906 6.96195313 3.15960937 8.15046875 3.1875 9.375 C3.22230469 10.55835938 3.25710938 11.74171875 3.29296875 12.9609375 C3.19628906 13.96382812 3.09960938 14.96671875 3 16 C2.01 16.66 1.02 17.32 0 18 C-0.19430855 15.3753399 -0.38073238 12.75053235 -0.5625 10.125 C-0.61857422 9.37863281 -0.67464844 8.63226562 -0.73242188 7.86328125 C-1.11328125 2.2265625 -1.11328125 2.2265625 0 0 Z " fill="#6E2229" transform="translate(645,656)"/>
<path d="M0 0 C3.59336569 3.16558406 5.3331895 7.20805465 7.5 11.40625 C8.83509561 13.71485283 10.12008822 15.16484803 12 17 C12 17.66 12 18.32 12 19 C12.556875 19.268125 13.11375 19.53625 13.6875 19.8125 C16.21225334 21.10899496 18.63714484 22.42476323 21 24 C21 24.66 21 25.32 21 26 C12.51233875 23.61284527 7.36145561 16.66626904 3.2265625 9.33203125 C2.61941406 8.17767578 2.61941406 8.17767578 2 7 C1.61585938 6.30261719 1.23171875 5.60523438 0.8359375 4.88671875 C0 3 0 3 0 0 Z " fill="#57151C" transform="translate(745,629)"/>
<path d="M0 0 C0.33 0 0.66 0 1 0 C1.09796875 1.22976563 1.1959375 2.45953125 1.296875 3.7265625 C1.44702623 5.35945712 1.59811772 6.99226548 1.75 8.625 C1.811875 9.43324219 1.87375 10.24148438 1.9375 11.07421875 C2.45420045 16.37039834 3.43531706 19.83283544 7 24 C9.29053098 25.72217074 9.29053098 25.72217074 11.75 26.875 C12.54921875 27.28492188 13.3484375 27.69484375 14.171875 28.1171875 C14.77515625 28.40851562 15.3784375 28.69984375 16 29 C15.67 29.66 15.34 30.32 15 31 C8.67718455 28.27298418 4.14535068 26.29070136 1 20 C0.09761253 17.29283758 -0.11851302 15.76223232 -0.09765625 12.98828125 C-0.09443359 12.23095703 -0.09121094 11.47363281 -0.08789062 10.69335938 C-0.07951172 9.90767578 -0.07113281 9.12199219 -0.0625 8.3125 C-0.05798828 7.51521484 -0.05347656 6.71792969 -0.04882812 5.89648438 C-0.0370585 3.93095743 -0.01912348 1.96546915 0 0 Z " fill="#57141C" transform="translate(328,616)"/>
<path d="M0 0 C5.15165051 3.52612972 8.81775942 6.6146698 12 12 C12.66 12.66 13.32 13.32 14 14 C15.58663053 17.84131602 16.20808894 20.04158091 15 24 C14.50371094 22.99839844 14.00742187 21.99679687 13.49609375 20.96484375 C8.58603075 11.20567723 8.58603075 11.20567723 1.25 3.19921875 C0.8375 2.80347656 0.425 2.40773438 0 2 C0 1.34 0 0.68 0 0 Z " fill="#5D151E" transform="translate(399,509)"/>
<path d="M0 0 C1.07765625 0.11085938 2.1553125 0.22171875 3.265625 0.3359375 C4.08546875 0.43132812 4.9053125 0.52671875 5.75 0.625 C5.75 0.955 5.75 1.285 5.75 1.625 C1.46 2.285 -2.83 2.945 -7.25 3.625 C-7.75660156 4.99785156 -7.75660156 4.99785156 -8.2734375 6.3984375 C-8.71945312 7.58695312 -9.16546875 8.77546875 -9.625 10 C-10.06585937 11.18335938 -10.50671875 12.36671875 -10.9609375 13.5859375 C-12.25 16.625 -12.25 16.625 -14.25 18.625 C-13.52605238 12.71276111 -12.13050208 7.26650624 -10.25 1.625 C-6.86930394 -0.823635 -4.02754001 -0.43777609 0 0 Z " fill="#6F292D" transform="translate(595.25,320.375)"/>
<path d="M0 0 C0.66 0 1.32 0 2 0 C1.02433045 3.34092907 0.0171679 6.67148035 -1 10 C-1.31324219 11.04285156 -1.62648438 12.08570313 -1.94921875 13.16015625 C-5.04963899 23.04963899 -5.04963899 23.04963899 -9 27 C-8.36352687 20.99896765 -6.12278022 15.69576616 -3.9375 10.125 C-3.37192383 8.66320312 -3.37192383 8.66320312 -2.79492188 7.171875 C-1.86835624 4.77922451 -0.93659209 2.38873946 0 0 Z " fill="#54131A" transform="translate(573,355)"/>
<path d="M0 0 C0.33 1.32 0.66 2.64 1 4 C0.34 4 -0.32 4 -1 4 C-1 9.94 -1 15.88 -1 22 C-1.33 22 -1.66 22 -2 22 C-2 15.4 -2 8.8 -2 2 C-6.62 2 -11.24 2 -16 2 C-16 1.67 -16 1.34 -16 1 C-10.59255982 0.22750855 -5.46137814 -0.09752461 0 0 Z " fill="#5E141C" transform="translate(433,444)"/>
<path d="M0 0 C9.065392 1.38970359 15.5971673 6.89100961 21 14 C17.77653866 12.51053855 15.04907736 10.65798578 12.1875 8.5625 C8.22876904 5.74740243 4.54650974 3.68023186 0 2 C0 1.34 0 0.68 0 0 Z " fill="#571119" transform="translate(420,351)"/>
<path d="M0 0 C0.66 0.33 1.32 0.66 2 1 C1.67 2.98 1.34 4.96 1 7 C0.34 7 -0.32 7 -1 7 C-1.18175781 7.67546875 -1.36351562 8.3509375 -1.55078125 9.046875 C-1.80214844 9.93890625 -2.05351562 10.8309375 -2.3125 11.75 C-2.55613281 12.63171875 -2.79976563 13.5134375 -3.05078125 14.421875 C-4.02125331 17.05772505 -5.21005644 18.85407326 -7 21 C-6.55307649 14.59409637 -4.6162323 4.6162323 0 0 Z " fill="#59121B" transform="translate(501,545)"/>
<path d="M0 0 C4.62 0 9.24 0 14 0 C12 2 12 2 9.6171875 2.1953125 C8.71226562 2.17210937 7.80734375 2.14890625 6.875 2.125 C5.50988281 2.09792969 5.50988281 2.09792969 4.1171875 2.0703125 C3.41851562 2.04710937 2.71984375 2.02390625 2 2 C1.67 4.31 1.34 6.62 1 9 C-1.33760758 5.28732913 -0.9611085 4.80554252 0 0 Z " fill="#58171E" transform="translate(229,657)"/>
<path d="M0 0 C0.33 0 0.66 0 1 0 C1.35073826 4.92982106 1.58614972 8.80515635 -0.625 13.3125 C-3.26193608 16.29640136 -5.79763148 18.63303196 -9 21 C-9.66 21 -10.32 21 -11 21 C-11 20.34 -11 19.68 -11 19 C-6.52941176 15 -6.52941176 15 -4 15 C-2.24265549 10.02638346 -0.67415387 5.2584002 0 0 Z " fill="#53131A" transform="translate(678,633)"/>
<path d="M0 0 C0.66 0.33 1.32 0.66 2 1 C-4.12262725 7.4827818 -9.30674998 10.53180666 -18 12 C-16.62438176 9.24876351 -15.2461281 9.23884775 -12.375 8.25 C-7.23145786 6.29900126 -3.9575957 3.78552632 0 0 Z " fill="#531118" transform="translate(407,470)"/>
<path d="M0 0 C-0.33 4.95 -0.66 9.9 -1 15 C-1.33 15 -1.66 15 -2 15 C-2.33 11.04 -2.66 7.08 -3 3 C-7.455 2.01 -7.455 2.01 -12 1 C-12 0.67 -12 0.34 -12 0 C-10.37585622 -0.19477739 -8.75063577 -0.38059458 -7.125 -0.5625 C-6.22007812 -0.66691406 -5.31515625 -0.77132812 -4.3828125 -0.87890625 C-2 -1 -2 -1 0 0 Z " fill="#521A1C" transform="translate(784,657)"/>
<path d="M0 0 C0.66 0 1.32 0 2 0 C1.41139757 2.65020486 0.80512738 5.29405483 0.1875 7.9375 C0.02185547 8.69224609 -0.14378906 9.44699219 -0.31445312 10.22460938 C-0.77816623 12.17570413 -1.3807544 14.09255787 -2 16 C-2.99 16.33 -3.98 16.66 -5 17 C-4.46246904 10.81839396 -2.45417612 5.673142 0 0 Z " fill="#59131B" transform="translate(553,407)"/>
<path d="M0 0 C0.66 0.33 1.32 0.66 2 1 C0.93128004 3.29954913 -0.15378212 5.58860271 -1.25 7.875 C-1.55035156 8.52597656 -1.85070312 9.17695312 -2.16015625 9.84765625 C-3.54354777 12.70274088 -4.53311777 14.69799576 -7.234375 16.4453125 C-7.81703125 16.62835937 -8.3996875 16.81140625 -9 17 C-8.60167969 16.27554688 -8.20335937 15.55109375 -7.79296875 14.8046875 C-5.10994868 9.90866547 -2.44255712 5.02081186 0 0 Z " fill="#56121A" transform="translate(479,603)"/>
<path d="M0 0 C1.26115314 3.78345941 0.5135673 5.26423581 -0.75 9 C-1.09546875 10.051875 -1.4409375 11.10375 -1.796875 12.1875 C-2.92431029 14.82306302 -3.8220373 16.19754811 -6 18 C-5.55397709 11.30965634 -2.92654458 5.97187878 0 0 Z " fill="#531018" transform="translate(519,498)"/>
<path d="M0 0 C4.86967403 4.70175423 5.6572936 10.62214459 7 17 C6.34 17.33 5.68 17.66 5 18 C4.35105763 15.93847611 3.7059736 13.87573742 3.0625 11.8125 C2.52302734 10.08966797 2.52302734 10.08966797 1.97265625 8.33203125 C1.16243964 5.55646994 0.50865693 2.84312452 0 0 Z " fill="#501319" transform="translate(259,353)"/>
<path d="M0 0 C0.33 0 0.66 0 1 0 C0.03791983 9.46045504 0.03791983 9.46045504 -2 13 C-4.07421875 13.62890625 -4.07421875 13.62890625 -6 14 C-5.19074658 11.85294019 -4.37750887 9.7073817 -3.5625 7.5625 C-3.11003906 6.36753906 -2.65757812 5.17257812 -2.19140625 3.94140625 C-1 1 -1 1 0 0 Z " fill="#59141C" transform="translate(264,632)"/>
<path d="M0 0 C0.66 0 1.32 0 2 0 C1.85892253 1.45880109 1.71197585 2.91703551 1.5625 4.375 C1.48128906 5.18710937 1.40007813 5.99921875 1.31640625 6.8359375 C1 9 1 9 0 11 C-0.99 10.67 -1.98 10.34 -3 10 C-2.01 6.7 -1.02 3.4 0 0 Z " fill="#61131E" transform="translate(541,438)"/>
<path d="M0 0 C2 2 2 2 2 5 C1.34 5 0.68 5 0 5 C0 9.62 0 14.24 0 19 C-0.33 19 -0.66 19 -1 19 C-1.02690104 16.20826945 -1.04679053 13.41679652 -1.0625 10.625 C-1.07087891 9.8309375 -1.07925781 9.036875 -1.08789062 8.21875 C-1.11328125 2.2265625 -1.11328125 2.2265625 0 0 Z " fill="#63111C" transform="translate(472,323)"/>
<path d="M0 0 C5.19591612 0.44033187 8.66335081 0.88303339 13 4 C9.29218328 5.23593891 8.32489747 4.5678132 4.8125 3.0625 C3.91144531 2.68222656 3.01039063 2.30195313 2.08203125 1.91015625 C1.39496094 1.60980469 0.70789063 1.30945313 0 1 C0 0.67 0 0.34 0 0 Z " fill="#56131B" transform="translate(385,504)"/>
<path d="M0 0 C0.99 0 1.98 0 3 0 C3.99 3.3 4.98 6.6 6 10 C5.34 10.66 4.68 11.32 4 12 C2.68 8.04 1.36 4.08 0 0 Z " fill="#631621" transform="translate(589,383)"/>
<path d="M0 0 C0.66 0 1.32 0 2 0 C0.58192622 4.47238653 -1.11304374 8.71146306 -3 13 C-3.93045933 10.44855176 -4.08564091 9.25993522 -3.22265625 6.640625 C-2.83980469 5.85171875 -2.45695313 5.0628125 -2.0625 4.25 C-1.68222656 3.45078125 -1.30195312 2.6515625 -0.91015625 1.828125 C-0.60980469 1.22484375 -0.30945313 0.6215625 0 0 Z " fill="#55111A" transform="translate(579,341)"/>
<path d="M0 0 C0.99 0.33 1.98 0.66 3 1 C2.0919838 2.13199353 1.17316174 3.25532363 0.25 4.375 C-0.26046875 5.00148438 -0.7709375 5.62796875 -1.296875 6.2734375 C-3.08199481 8.08312318 -4.67949644 9.00117455 -7 10 C-5.33248852 6.05860922 -2.77289351 3.2107188 0 0 Z " fill="#4D0B12" transform="translate(468,621)"/>
<path d="M0 0 C0.93045933 2.55144824 1.08564091 3.74006478 0.22265625 6.359375 C-0.16019531 7.14828125 -0.54304688 7.9371875 -0.9375 8.75 C-1.50791016 9.94882812 -1.50791016 9.94882812 -2.08984375 11.171875 C-2.39019531 11.77515625 -2.69054687 12.3784375 -3 13 C-4.15019009 9.54942972 -3.80497206 8.69840756 -2.625 5.375 C-2.34914063 4.57835937 -2.07328125 3.78171875 -1.7890625 2.9609375 C-1 1 -1 1 0 0 Z " fill="#551017" transform="translate(507,612)"/>
<path d="M0 0 C-3.65333143 2.63379708 -6.48521602 4.46884894 -11 5 C-11 4.34 -11 3.68 -11 3 C-9.73581754 2.30034557 -8.46334598 1.61565237 -7.1875 0.9375 C-6.47980469 0.55464844 -5.77210938 0.17179688 -5.04296875 -0.22265625 C-3 -1 -3 -1 0 0 Z " fill="#56151B" transform="translate(255,652)"/>
<path d="M0 0 C1.98 0 3.96 0 6 0 C6.33 0.99 6.66 1.98 7 3 C4.03 3 1.06 3 -2 3 C-1.34 2.67 -0.68 2.34 0 2 C0 1.34 0 0.68 0 0 Z " fill="#5D101C" transform="translate(616,529)"/>
<path d="M0 0 C1.98 0 3.96 0 6 0 C5.67 0.66 5.34 1.32 5 2 C3.35 1.67 1.7 1.34 0 1 C0 0.67 0 0.34 0 0 Z " fill="#9C3B44" transform="translate(399,350)"/>
<path d="M0 0 C4 1 4 1 4 1 Z " fill="#9F3D45" transform="translate(545,558)"/>
<path d="M0 0 C4 1 4 1 4 1 Z " fill="#9F3B45" transform="translate(537,558)"/>
<path d="M0 0 C1.485 0.99 1.485 0.99 3 2 C2.01 2 1.02 2 0 2 C0 1.34 0 0.68 0 0 Z " fill="#A0444A" transform="translate(336,480)"/>
<path d="M0 0 C3 1 3 1 3 1 Z " fill="#A04148" transform="translate(424,643)"/>
<path d="" fill="#9D3D45" transform="translate(0,0)"/>
<path d="M0 0 C0.66 0 1.32 0 2 0 C1.67 0.66 1.34 1.32 1 2 C0.67 1.34 0.34 0.68 0 0 Z " fill="#9A3A41" transform="translate(651,566)"/>
<path d="M0 0 C3 1 3 1 3 1 Z " fill="#9F3F46" transform="translate(579,558)"/>
<path d="M0 0 C3 1 3 1 3 1 Z " fill="#9D484C" transform="translate(576,528)"/>
<path d="M0 0 C3 1 3 1 3 1 Z " fill="#9C3A45" transform="translate(392,509)"/>
<path d="" fill="#9B3642" transform="translate(0,0)"/>
<path d="M0 0 C3 1 3 1 3 1 Z " fill="#A04248" transform="translate(380,480)"/>
<path d="" fill="#9B3A42" transform="translate(0,0)"/>
<path d="" fill="#9C3A42" transform="translate(0,0)"/>
<path d="M0 0 C0.99 0.495 0.99 0.495 2 1 C1.01 1.495 1.01 1.495 0 2 C0 1.34 0 0.68 0 0 Z " fill="#9F3E46" transform="translate(449,388)"/>
<path d="M0 0 C0.99 0.495 0.99 0.495 2 1 C1.01 1.495 1.01 1.495 0 2 C0 1.34 0 0.68 0 0 Z " fill="#9D3C45" transform="translate(396,350)"/>
<path d="M0 0 C0.66 0.66 1.32 1.32 2 2 C1.34 2 0.68 2 0 2 C0 1.34 0 0.68 0 0 Z " fill="#9D3D46" transform="translate(249,347)"/>
<path d="M0 0 C2 1 2 1 2 1 Z " fill="#9C3A41" transform="translate(338,641)"/>
<path d="" fill="#984146" transform="translate(0,0)"/>
<path d="M0 0 C2 1 2 1 2 1 Z " fill="#9A3F44" transform="translate(464,616)"/>
<path d="" fill="#9C3F46" transform="translate(0,0)"/>
<path d="" fill="#9D3943" transform="translate(0,0)"/>
<path d="" fill="#964046" transform="translate(0,0)"/>
<path d="" fill="#9A3C44" transform="translate(0,0)"/>
<path d="M0 0 C2 1 2 1 2 1 Z " fill="#9F3C45" transform="translate(627,558)"/>
<path d="" fill="#9F4449" transform="translate(0,0)"/>
<path d="M0 0 C2 1 2 1 2 1 Z " fill="#9B474B" transform="translate(568,528)"/>
<path d="" fill="#963E44" transform="translate(0,0)"/>
<path d="" fill="#993541" transform="translate(0,0)"/>
<path d="M0 0 C2 1 2 1 2 1 Z " fill="#9A3A42" transform="translate(395,510)"/>
<path d="" fill="#9A3740" transform="translate(0,0)"/>
<path d="" fill="#9B4246" transform="translate(0,0)"/>
<path d="" fill="#9D4247" transform="translate(0,0)"/>
<path d="" fill="#9F4449" transform="translate(0,0)"/>
<path d="" fill="#9C3D46" transform="translate(0,0)"/>
<path d="" fill="#983945" transform="translate(0,0)"/>
<path d="" fill="#9A3B43" transform="translate(0,0)"/>
<path d="" fill="#9A3743" transform="translate(0,0)"/>
<path d="" fill="#97343F" transform="translate(0,0)"/>
<path d="" fill="#97343F" transform="translate(0,0)"/>
<path d="" fill="#9C3A45" transform="translate(0,0)"/>
<path d="" fill="#994247" transform="translate(0,0)"/>
<path d="" fill="#973640" transform="translate(0,0)"/>
<path d="" fill="#97373F" transform="translate(0,0)"/>
<path d="" fill="#9C3C45" transform="translate(0,0)"/>
<path d="" fill="#993440" transform="translate(0,0)"/>
<path d="" fill="#9F4148" transform="translate(0,0)"/>
<path d="" fill="#9D3D46" transform="translate(0,0)"/>
<path d="" fill="#9D3C45" transform="translate(0,0)"/>
<path d="" fill="#993E44" transform="translate(0,0)"/>
<path d="M0 0 C2 1 2 1 2 1 Z " fill="#A03E46" transform="translate(257,357)"/>
<path d="M0 0 C2 1 2 1 2 1 Z " fill="#993B44" transform="translate(411,351)"/>
<path d="M0 0 C2 1 2 1 2 1 Z " fill="#9F3C45" transform="translate(388,350)"/>
<path d="" fill="#99885A" transform="translate(0,0)"/>
<path d="" fill="#A24D4E" transform="translate(0,0)"/>
<path d="" fill="#A14F4D" transform="translate(0,0)"/>
<path d="" fill="#A55750" transform="translate(0,0)"/>
<path d="" fill="#A45450" transform="translate(0,0)"/>
<path d="" fill="#9C4B4A" transform="translate(0,0)"/>
<path d="" fill="#A35352" transform="translate(0,0)"/>
<path d="" fill="#993D46" transform="translate(0,0)"/>
<path d="" fill="#9C4046" transform="translate(0,0)"/>
<path d="" fill="#9A3C45" transform="translate(0,0)"/>
<path d="" fill="#9D4046" transform="translate(0,0)"/>
<path d="" fill="#9E3F46" transform="translate(0,0)"/>
<path d="" fill="#9F4349" transform="translate(0,0)"/>
<path d="" fill="#9D4246" transform="translate(0,0)"/>
<path d="" fill="#994045" transform="translate(0,0)"/>
<path d="" fill="#9E4147" transform="translate(0,0)"/>
<path d="" fill="#9C4146" transform="translate(0,0)"/>
<path d="" fill="#9E3F46" transform="translate(0,0)"/>
<path d="" fill="#9B4347" transform="translate(0,0)"/>
<path d="" fill="#9E3F45" transform="translate(0,0)"/>
<path d="" fill="#9E4046" transform="translate(0,0)"/>
<path d="" fill="#9A3C43" transform="translate(0,0)"/>
<path d="" fill="#9C3B44" transform="translate(0,0)"/>
<path d="" fill="#9D3F43" transform="translate(0,0)"/>
<path d="" fill="#9A895B" transform="translate(0,0)"/>
<path d="" fill="#993942" transform="translate(0,0)"/>
<path d="" fill="#9F3D46" transform="translate(0,0)"/>
<path d="" fill="#9B4045" transform="translate(0,0)"/>
<path d="" fill="#9D3F46" transform="translate(0,0)"/>
<path d="" fill="#9C4248" transform="translate(0,0)"/>
<path d="" fill="#9D3F45" transform="translate(0,0)"/>
<path d="" fill="#9B3D43" transform="translate(0,0)"/>
<path d="" fill="#9A3E46" transform="translate(0,0)"/>
<path d="" fill="#9E3B46" transform="translate(0,0)"/>
<path d="" fill="#9F4246" transform="translate(0,0)"/>
<path d="" fill="#9C4347" transform="translate(0,0)"/>
<path d="" fill="#9E3C44" transform="translate(0,0)"/>
<path d="" fill="#9C3844" transform="translate(0,0)"/>
<path d="" fill="#9A3D42" transform="translate(0,0)"/>
<path d="" fill="#9D3C43" transform="translate(0,0)"/>
<path d="" fill="#9D3D42" transform="translate(0,0)"/>
<path d="" fill="#9D3D44" transform="translate(0,0)"/>
<path d="" fill="#994148" transform="translate(0,0)"/>
<path d="" fill="#9F4047" transform="translate(0,0)"/>
<path d="" fill="#983942" transform="translate(0,0)"/>
<path d="" fill="#A24149" transform="translate(0,0)"/>
<path d="" fill="#94363F" transform="translate(0,0)"/>
<path d="" fill="#9D3F45" transform="translate(0,0)"/>
<path d="" fill="#9F3F46" transform="translate(0,0)"/>
<path d="" fill="#A13E47" transform="translate(0,0)"/>
<path d="" fill="#A03F47" transform="translate(0,0)"/>
<path d="" fill="#A23E46" transform="translate(0,0)"/>
<path d="" fill="#974346" transform="translate(0,0)"/>
<path d="" fill="#9C4146" transform="translate(0,0)"/>
<path d="" fill="#994145" transform="translate(0,0)"/>
<path d="" fill="#9D3E45" transform="translate(0,0)"/>
<path d="" fill="#9F464B" transform="translate(0,0)"/>
<path d="" fill="#A2474B" transform="translate(0,0)"/>
<path d="" fill="#9F4048" transform="translate(0,0)"/>
<path d="" fill="#A04B4F" transform="translate(0,0)"/>
<path d="" fill="#9D454A" transform="translate(0,0)"/>
<path d="" fill="#9E4749" transform="translate(0,0)"/>
<path d="" fill="#974148" transform="translate(0,0)"/>
<path d="" fill="#953A43" transform="translate(0,0)"/>
<path d="" fill="#A04148" transform="translate(0,0)"/>
<path d="" fill="#9F4249" transform="translate(0,0)"/>
<path d="" fill="#9D3D47" transform="translate(0,0)"/>
<path d="" fill="#9C3F44" transform="translate(0,0)"/>
<path d="" fill="#993D44" transform="translate(0,0)"/>
<path d="" fill="#9A3B43" transform="translate(0,0)"/>
<path d="" fill="#9D3742" transform="translate(0,0)"/>
<path d="" fill="#9C3D43" transform="translate(0,0)"/>
<path d="" fill="#993942" transform="translate(0,0)"/>
<path d="" fill="#973B41" transform="translate(0,0)"/>
<path d="" fill="#9C4348" transform="translate(0,0)"/>
<path d="" fill="#9E4046" transform="translate(0,0)"/>
<path d="" fill="#9E4346" transform="translate(0,0)"/>
<path d="" fill="#983B45" transform="translate(0,0)"/>
<path d="" fill="#9B3C42" transform="translate(0,0)"/>
<path d="" fill="#9B3C43" transform="translate(0,0)"/>
<path d="" fill="#A04046" transform="translate(0,0)"/>
<path d="" fill="#993945" transform="translate(0,0)"/>
<path d="" fill="#9B3B44" transform="translate(0,0)"/>
<path d="" fill="#A2454B" transform="translate(0,0)"/>
<path d="" fill="#993741" transform="translate(0,0)"/>
<path d="" fill="#9A3C43" transform="translate(0,0)"/>
<path d="" fill="#9C3D44" transform="translate(0,0)"/>
<path d="" fill="#A24B4E" transform="translate(0,0)"/>
<path d="" fill="#A34B4F" transform="translate(0,0)"/>
<path d="" fill="#A44E51" transform="translate(0,0)"/>
<path d="" fill="#A64D52" transform="translate(0,0)"/>
<path d="" fill="#A3494B" transform="translate(0,0)"/>
<path d="" fill="#A34B4F" transform="translate(0,0)"/>
<path d="" fill="#9B4048" transform="translate(0,0)"/>
<path d="" fill="#A2464A" transform="translate(0,0)"/>
<path d="" fill="#A1464C" transform="translate(0,0)"/>
<path d="" fill="#9C3C47" transform="translate(0,0)"/>
<path d="" fill="#A04347" transform="translate(0,0)"/>
<path d="" fill="#9C3841" transform="translate(0,0)"/>
<path d="" fill="#9A3F47" transform="translate(0,0)"/>
<path d="" fill="#9C3B43" transform="translate(0,0)"/>
<path d="" fill="#9B4048" transform="translate(0,0)"/>
<path d="" fill="#9C4448" transform="translate(0,0)"/>
<path d="" fill="#9E4548" transform="translate(0,0)"/>
<path d="" fill="#9B3842" transform="translate(0,0)"/>
<path d="" fill="#974146" transform="translate(0,0)"/>
<path d="" fill="#993843" transform="translate(0,0)"/>
<path d="" fill="#9C4048" transform="translate(0,0)"/>
<path d="" fill="#993840" transform="translate(0,0)"/>
<path d="" fill="#9C3D45" transform="translate(0,0)"/>
<path d="" fill="#9E3F46" transform="translate(0,0)"/>
<path d="" fill="#A24F51" transform="translate(0,0)"/>
<path d="" fill="#9B3F45" transform="translate(0,0)"/>
<path d="" fill="#9C3D44" transform="translate(0,0)"/>
<path d="" fill="#9F4045" transform="translate(0,0)"/>
<path d="" fill="#9A3A41" transform="translate(0,0)"/>
<path d="" fill="#9B3743" transform="translate(0,0)"/>
<path d="" fill="#9C3642" transform="translate(0,0)"/>
<path d="" fill="#983843" transform="translate(0,0)"/>
<path d="" fill="#963F44" transform="translate(0,0)"/>
<path d="" fill="#9F3D47" transform="translate(0,0)"/>
<path d="" fill="#9A3642" transform="translate(0,0)"/>
<path d="" fill="#983D44" transform="translate(0,0)"/>
<path d="" fill="#9D4144" transform="translate(0,0)"/>
<path d="" fill="#983C44" transform="translate(0,0)"/>
<path d="" fill="#9A3840" transform="translate(0,0)"/>
<path d="" fill="#993740" transform="translate(0,0)"/>
<path d="" fill="#963440" transform="translate(0,0)"/>
<path d="" fill="#983E43" transform="translate(0,0)"/>
<path d="" fill="#93363F" transform="translate(0,0)"/>
<path d="" fill="#9F4148" transform="translate(0,0)"/>
<path d="" fill="#9B3E44" transform="translate(0,0)"/>
<path d="" fill="#993441" transform="translate(0,0)"/>
<path d="" fill="#9B4048" transform="translate(0,0)"/>
<path d="" fill="#9E3F46" transform="translate(0,0)"/>
<path d="" fill="#953842" transform="translate(0,0)"/>
<path d="" fill="#953641" transform="translate(0,0)"/>
<path d="" fill="#953B43" transform="translate(0,0)"/>
<path d="" fill="#9B3F46" transform="translate(0,0)"/>
<path d="" fill="#9C3E44" transform="translate(0,0)"/>
<path d="" fill="#9B3C46" transform="translate(0,0)"/>
<path d="" fill="#9A3A42" transform="translate(0,0)"/>
<path d="" fill="#9A3943" transform="translate(0,0)"/>
<path d="" fill="#983C43" transform="translate(0,0)"/>
<path d="" fill="#9C3A44" transform="translate(0,0)"/>
<path d="" fill="#9A3B42" transform="translate(0,0)"/>
<path d="" fill="#9C3C44" transform="translate(0,0)"/>
<path d="" fill="#983D45" transform="translate(0,0)"/>
<path d="" fill="#9D3D48" transform="translate(0,0)"/>
<path d="" fill="#9B3740" transform="translate(0,0)"/>
<path d="" fill="#9A4045" transform="translate(0,0)"/>
<path d="" fill="#A04048" transform="translate(0,0)"/>
<path d="" fill="#9C3942" transform="translate(0,0)"/>
<path d="" fill="#993943" transform="translate(0,0)"/>
<path d="" fill="#9F3E45" transform="translate(0,0)"/>
<path d="" fill="#994346" transform="translate(0,0)"/>
<path d="" fill="#9D4145" transform="translate(0,0)"/>
<path d="" fill="#9C3D46" transform="translate(0,0)"/>
<path d="" fill="#9D3F47" transform="translate(0,0)"/>
<path d="" fill="#9D8C5E" transform="translate(0,0)"/>
<path d="" fill="#9C3E45" transform="translate(0,0)"/>
<path d="" fill="#A03F47" transform="translate(0,0)"/>
<path d="" fill="#A03E47" transform="translate(0,0)"/>
<path d="" fill="#9F3E45" transform="translate(0,0)"/>
<path d="" fill="#A03D47" transform="translate(0,0)"/>
<path d="" fill="#A03F47" transform="translate(0,0)"/>
<path d="" fill="#9A3841" transform="translate(0,0)"/>
<path d="" fill="#973B42" transform="translate(0,0)"/>
<path d="" fill="#9C3E44" transform="translate(0,0)"/>
<path d="" fill="#973E44" transform="translate(0,0)"/>
<path d="" fill="#9F424C" transform="translate(0,0)"/>
<path d="" fill="#953F48" transform="translate(0,0)"/>
<path d="" fill="#9B4147" transform="translate(0,0)"/>
<path d="" fill="#A1454B" transform="translate(0,0)"/>
<path d="" fill="#A65C51" transform="translate(0,0)"/>
<path d="" fill="#A35350" transform="translate(0,0)"/>
<path d="" fill="#9D3F46" transform="translate(0,0)"/>
<path d="" fill="#A2534F" transform="translate(0,0)"/>
<path d="" fill="#9D4146" transform="translate(0,0)"/>
<path d="" fill="#9E4647" transform="translate(0,0)"/>
<path d="" fill="#9E474A" transform="translate(0,0)"/>
<path d="" fill="#9F4B4A" transform="translate(0,0)"/>
<path d="" fill="#9D4648" transform="translate(0,0)"/>
<path d="" fill="#A4544F" transform="translate(0,0)"/>
<path d="" fill="#A1524D" transform="translate(0,0)"/>
<path d="" fill="#A04E4C" transform="translate(0,0)"/>
<path d="" fill="#A84F4E" transform="translate(0,0)"/>
<path d="" fill="#9E484C" transform="translate(0,0)"/>
<path d="" fill="#9E8C5F" transform="translate(0,0)"/>
<path d="" fill="#948557" transform="translate(0,0)"/>
</svg>
