<svg xmlns="http://www.w3.org/2000/svg" version="1.1" xmlns:xlink="http://www.w3.org/1999/xlink" xmlns:svgjs="http://svgjs.dev/svgjs" width="1440" height="560" preserveAspectRatio="none" viewBox="0 0 1440 560"><g mask="url(&quot;#SvgjsMask1006&quot;)" fill="none"><path d="M-50.12 398.31L-50.12 398.31" stroke="rgba(95, 9, 10, 1)" stroke-width="1.5"></path><path d="M-50.12 398.31L-39.28 529.83" stroke="rgba(95, 9, 10, 1)" stroke-width="1.5"></path><path d="M-50.12 398.31L96.22 338.49" stroke="rgba(95, 9, 10, 1)" stroke-width="1.5"></path><path d="M-50.12 398.31L90.95 521.02" stroke="rgba(95, 9, 10, 1)" stroke-width="1.5"></path><path d="M-50.12 398.31L58.41 643.61" stroke="rgba(95, 9, 10, 1)" stroke-width="1.5"></path><path d="M-39.28 529.83L-39.28 529.83" stroke="rgba(95, 9, 10, 1)" stroke-width="1.5"></path><path d="M-39.28 529.83L90.95 521.02" stroke="rgba(95, 9, 10, 1)" stroke-width="1.5"></path><path d="M-44.63 678.89L-44.63 678.89" stroke="rgba(95, 9, 10, 1)" stroke-width="1.5"></path><path d="M-44.63 678.89L58.41 643.61" stroke="rgba(95, 9, 10, 1)" stroke-width="1.5"></path><path d="M-44.63 678.89L-39.28 529.83" stroke="rgba(95, 9, 10, 1)" stroke-width="1.5"></path><path d="M-44.63 678.89L90.95 521.02" stroke="rgba(95, 9, 10, 1)" stroke-width="1.5"></path><path d="M-44.63 678.89L200.2 679.18" stroke="rgba(95, 9, 10, 1)" stroke-width="1.5"></path><path d="M-44.63 678.89L-50.12 398.31" stroke="rgba(95, 9, 10, 1)" stroke-width="1.5"></path><path d="M-44.63 678.89L254.98 534.72" stroke="rgba(95, 9, 10, 1)" stroke-width="1.5"></path><path d="M96.22 338.49L96.22 338.49" stroke="rgba(95, 9, 10, 1)" stroke-width="1.5"></path><path d="M96.22 338.49L226.69 404.58" stroke="rgba(95, 9, 10, 1)" stroke-width="1.5"></path><path d="M96.22 338.49L90.95 521.02" stroke="rgba(95, 9, 10, 1)" stroke-width="1.5"></path><path d="M96.22 338.49L-39.28 529.83" stroke="rgba(95, 9, 10, 1)" stroke-width="1.5"></path><path d="M96.22 338.49L254.98 534.72" stroke="rgba(95, 9, 10, 1)" stroke-width="1.5"></path><path d="M90.95 521.02L90.95 521.02" stroke="rgba(95, 9, 10, 1)" stroke-width="1.5"></path><path d="M90.95 521.02L58.41 643.61" stroke="rgba(95, 9, 10, 1)" stroke-width="1.5"></path><path d="M58.41 643.61L58.41 643.61" stroke="rgba(95, 9, 10, 1)" stroke-width="1.5"></path><path d="M58.41 643.61L200.2 679.18" stroke="rgba(95, 9, 10, 1)" stroke-width="1.5"></path><path d="M58.41 643.61L-39.28 529.83" stroke="rgba(95, 9, 10, 1)" stroke-width="1.5"></path><path d="M58.41 643.61L254.98 534.72" stroke="rgba(95, 9, 10, 1)" stroke-width="1.5"></path><path d="M226.69 404.58L226.69 404.58" stroke="rgba(95, 9, 10, 1)" stroke-width="1.5"></path><path d="M226.69 404.58L254.98 534.72" stroke="rgba(95, 9, 10, 1)" stroke-width="1.5"></path><path d="M226.69 404.58L388.82 385.31" stroke="rgba(95, 9, 10, 1)" stroke-width="1.5"></path><path d="M226.69 404.58L90.95 521.02" stroke="rgba(95, 9, 10, 1)" stroke-width="1.5"></path><path d="M226.69 404.58L369.65 512.04" stroke="rgba(95, 9, 10, 1)" stroke-width="1.5"></path><path d="M254.98 534.72L254.98 534.72" stroke="rgba(95, 9, 10, 1)" stroke-width="1.5"></path><path d="M254.98 534.72L369.65 512.04" stroke="rgba(95, 9, 10, 1)" stroke-width="1.5"></path><path d="M254.98 534.72L200.2 679.18" stroke="rgba(95, 9, 10, 1)" stroke-width="1.5"></path><path d="M200.2 679.18L200.2 679.18" stroke="rgba(95, 9, 10, 1)" stroke-width="1.5"></path><path d="M200.2 679.18L90.95 521.02" stroke="rgba(95, 9, 10, 1)" stroke-width="1.5"></path><path d="M200.2 679.18L411.37 676.82" stroke="rgba(95, 9, 10, 1)" stroke-width="1.5"></path><path d="M388.82 385.31L388.82 385.31" stroke="rgba(95, 9, 10, 1)" stroke-width="1.5"></path><path d="M388.82 385.31L369.65 512.04" stroke="rgba(95, 9, 10, 1)" stroke-width="1.5"></path><path d="M369.65 512.04L369.65 512.04" stroke="rgba(95, 9, 10, 1)" stroke-width="1.5"></path><path d="M369.65 512.04L525.86 543.09" stroke="rgba(95, 9, 10, 1)" stroke-width="1.5"></path><path d="M369.65 512.04L411.37 676.82" stroke="rgba(95, 9, 10, 1)" stroke-width="1.5"></path><path d="M369.65 512.04L521.71 665.57" stroke="rgba(95, 9, 10, 1)" stroke-width="1.5"></path><path d="M411.37 676.82L411.37 676.82" stroke="rgba(95, 9, 10, 1)" stroke-width="1.5"></path><path d="M411.37 676.82L521.71 665.57" stroke="rgba(95, 9, 10, 1)" stroke-width="1.5"></path><path d="M411.37 676.82L525.86 543.09" stroke="rgba(95, 9, 10, 1)" stroke-width="1.5"></path><path d="M557.3 388.7L557.3 388.7" stroke="rgba(95, 9, 10, 1)" stroke-width="1.5"></path><path d="M557.3 388.7L641.99 339.02" stroke="rgba(95, 9, 10, 1)" stroke-width="1.5"></path><path d="M557.3 388.7L525.86 543.09" stroke="rgba(95, 9, 10, 1)" stroke-width="1.5"></path><path d="M557.3 388.7L388.82 385.31" stroke="rgba(95, 9, 10, 1)" stroke-width="1.5"></path><path d="M525.86 543.09L525.86 543.09" stroke="rgba(95, 9, 10, 1)" stroke-width="1.5"></path><path d="M525.86 543.09L521.71 665.57" stroke="rgba(95, 9, 10, 1)" stroke-width="1.5"></path><path d="M525.86 543.09L657.46 524.24" stroke="rgba(95, 9, 10, 1)" stroke-width="1.5"></path><path d="M521.71 665.57L521.71 665.57" stroke="rgba(95, 9, 10, 1)" stroke-width="1.5"></path><path d="M521.71 665.57L641.63 683.37" stroke="rgba(95, 9, 10, 1)" stroke-width="1.5"></path><path d="M521.71 665.57L657.46 524.24" stroke="rgba(95, 9, 10, 1)" stroke-width="1.5"></path><path d="M521.71 665.57L793.43 705.57" stroke="rgba(95, 9, 10, 1)" stroke-width="1.5"></path><path d="M659.52 236.95L659.52 236.95" stroke="rgba(95, 9, 10, 1)" stroke-width="1.5"></path><path d="M659.52 236.95L641.99 339.02" stroke="rgba(95, 9, 10, 1)" stroke-width="1.5"></path><path d="M659.52 236.95L826.82 195.48" stroke="rgba(95, 9, 10, 1)" stroke-width="1.5"></path><path d="M659.52 236.95L557.3 388.7" stroke="rgba(95, 9, 10, 1)" stroke-width="1.5"></path><path d="M659.52 236.95L795.09 371.9" stroke="rgba(95, 9, 10, 1)" stroke-width="1.5"></path><path d="M659.52 236.95L657.46 524.24" stroke="rgba(95, 9, 10, 1)" stroke-width="1.5"></path><path d="M659.52 236.95L388.82 385.31" stroke="rgba(95, 9, 10, 1)" stroke-width="1.5"></path><path d="M641.99 339.02L641.99 339.02" stroke="rgba(95, 9, 10, 1)" stroke-width="1.5"></path><path d="M657.46 524.24L657.46 524.24" stroke="rgba(95, 9, 10, 1)" stroke-width="1.5"></path><path d="M657.46 524.24L641.63 683.37" stroke="rgba(95, 9, 10, 1)" stroke-width="1.5"></path><path d="M657.46 524.24L557.3 388.7" stroke="rgba(95, 9, 10, 1)" stroke-width="1.5"></path><path d="M657.46 524.24L834.23 557.97" stroke="rgba(95, 9, 10, 1)" stroke-width="1.5"></path><path d="M657.46 524.24L641.99 339.02" stroke="rgba(95, 9, 10, 1)" stroke-width="1.5"></path><path d="M641.63 683.37L641.63 683.37" stroke="rgba(95, 9, 10, 1)" stroke-width="1.5"></path><path d="M641.63 683.37L793.43 705.57" stroke="rgba(95, 9, 10, 1)" stroke-width="1.5"></path><path d="M641.63 683.37L525.86 543.09" stroke="rgba(95, 9, 10, 1)" stroke-width="1.5"></path><path d="M641.63 683.37L834.23 557.97" stroke="rgba(95, 9, 10, 1)" stroke-width="1.5"></path><path d="M826.82 195.48L826.82 195.48" stroke="rgba(95, 9, 10, 1)" stroke-width="1.5"></path><path d="M826.82 195.48L987.08 195.3" stroke="rgba(95, 9, 10, 1)" stroke-width="1.5"></path><path d="M826.82 195.48L795.09 371.9" stroke="rgba(95, 9, 10, 1)" stroke-width="1.5"></path><path d="M795.09 371.9L795.09 371.9" stroke="rgba(95, 9, 10, 1)" stroke-width="1.5"></path><path d="M795.09 371.9L641.99 339.02" stroke="rgba(95, 9, 10, 1)" stroke-width="1.5"></path><path d="M795.09 371.9L971.87 344.64" stroke="rgba(95, 9, 10, 1)" stroke-width="1.5"></path><path d="M834.23 557.97L834.23 557.97" stroke="rgba(95, 9, 10, 1)" stroke-width="1.5"></path><path d="M834.23 557.97L793.43 705.57" stroke="rgba(95, 9, 10, 1)" stroke-width="1.5"></path><path d="M834.23 557.97L1007.27 494.77" stroke="rgba(95, 9, 10, 1)" stroke-width="1.5"></path><path d="M834.23 557.97L795.09 371.9" stroke="rgba(95, 9, 10, 1)" stroke-width="1.5"></path><path d="M793.43 705.57L793.43 705.57" stroke="rgba(95, 9, 10, 1)" stroke-width="1.5"></path><path d="M793.43 705.57L657.46 524.24" stroke="rgba(95, 9, 10, 1)" stroke-width="1.5"></path><path d="M793.43 705.57L1007.27 494.77" stroke="rgba(95, 9, 10, 1)" stroke-width="1.5"></path><path d="M793.43 705.57L525.86 543.09" stroke="rgba(95, 9, 10, 1)" stroke-width="1.5"></path><path d="M981.69 -43.01L981.69 -43.01" stroke="rgba(95, 9, 10, 1)" stroke-width="1.5"></path><path d="M981.69 -43.01L948.64 39.2" stroke="rgba(95, 9, 10, 1)" stroke-width="1.5"></path><path d="M981.69 -43.01L1105.38 -43.38" stroke="rgba(95, 9, 10, 1)" stroke-width="1.5"></path><path d="M981.69 -43.01L1107.08 102.55" stroke="rgba(95, 9, 10, 1)" stroke-width="1.5"></path><path d="M948.64 39.2L948.64 39.2" stroke="rgba(95, 9, 10, 1)" stroke-width="1.5"></path><path d="M948.64 39.2L987.08 195.3" stroke="rgba(95, 9, 10, 1)" stroke-width="1.5"></path><path d="M987.08 195.3L987.08 195.3" stroke="rgba(95, 9, 10, 1)" stroke-width="1.5"></path><path d="M987.08 195.3L971.87 344.64" stroke="rgba(95, 9, 10, 1)" stroke-width="1.5"></path><path d="M987.08 195.3L1107.08 102.55" stroke="rgba(95, 9, 10, 1)" stroke-width="1.5"></path><path d="M987.08 195.3L1155.08 213.96" stroke="rgba(95, 9, 10, 1)" stroke-width="1.5"></path><path d="M987.08 195.3L1088.6 373.85" stroke="rgba(95, 9, 10, 1)" stroke-width="1.5"></path><path d="M971.87 344.64L971.87 344.64" stroke="rgba(95, 9, 10, 1)" stroke-width="1.5"></path><path d="M971.87 344.64L1088.6 373.85" stroke="rgba(95, 9, 10, 1)" stroke-width="1.5"></path><path d="M1007.27 494.77L1007.27 494.77" stroke="rgba(95, 9, 10, 1)" stroke-width="1.5"></path><path d="M1007.27 494.77L1152.38 498.76" stroke="rgba(95, 9, 10, 1)" stroke-width="1.5"></path><path d="M1007.27 494.77L1088.6 373.85" stroke="rgba(95, 9, 10, 1)" stroke-width="1.5"></path><path d="M1007.27 494.77L971.87 344.64" stroke="rgba(95, 9, 10, 1)" stroke-width="1.5"></path><path d="M1105.38 -43.38L1105.38 -43.38" stroke="rgba(95, 9, 10, 1)" stroke-width="1.5"></path><path d="M1105.38 -43.38L1107.08 102.55" stroke="rgba(95, 9, 10, 1)" stroke-width="1.5"></path><path d="M1105.38 -43.38L948.64 39.2" stroke="rgba(95, 9, 10, 1)" stroke-width="1.5"></path><path d="M1107.08 102.55L1107.08 102.55" stroke="rgba(95, 9, 10, 1)" stroke-width="1.5"></path><path d="M1107.08 102.55L1155.08 213.96" stroke="rgba(95, 9, 10, 1)" stroke-width="1.5"></path><path d="M1155.08 213.96L1155.08 213.96" stroke="rgba(95, 9, 10, 1)" stroke-width="1.5"></path><path d="M1155.08 213.96L1088.6 373.85" stroke="rgba(95, 9, 10, 1)" stroke-width="1.5"></path><path d="M1088.6 373.85L1088.6 373.85" stroke="rgba(95, 9, 10, 1)" stroke-width="1.5"></path><path d="M1088.6 373.85L1152.38 498.76" stroke="rgba(95, 9, 10, 1)" stroke-width="1.5"></path><path d="M1088.6 373.85L1238.08 400.13" stroke="rgba(95, 9, 10, 1)" stroke-width="1.5"></path><path d="M1152.38 498.76L1152.38 498.76" stroke="rgba(95, 9, 10, 1)" stroke-width="1.5"></path><path d="M1152.38 498.76L1243.52 558.35" stroke="rgba(95, 9, 10, 1)" stroke-width="1.5"></path><path d="M1152.38 498.76L1238.08 400.13" stroke="rgba(95, 9, 10, 1)" stroke-width="1.5"></path><path d="M1136.01 673.53L1136.01 673.53" stroke="rgba(95, 9, 10, 1)" stroke-width="1.5"></path><path d="M1136.01 673.53L1243.52 558.35" stroke="rgba(95, 9, 10, 1)" stroke-width="1.5"></path><path d="M1136.01 673.53L1302.35 687.25" stroke="rgba(95, 9, 10, 1)" stroke-width="1.5"></path><path d="M1136.01 673.53L1152.38 498.76" stroke="rgba(95, 9, 10, 1)" stroke-width="1.5"></path><path d="M1136.01 673.53L1007.27 494.77" stroke="rgba(95, 9, 10, 1)" stroke-width="1.5"></path><path d="M1136.01 673.53L1422.72 650.53" stroke="rgba(95, 9, 10, 1)" stroke-width="1.5"></path><path d="M1303.96 -84.8L1303.96 -84.8" stroke="rgba(95, 9, 10, 1)" stroke-width="1.5"></path><path d="M1303.96 -84.8L1400.65 -61.31" stroke="rgba(95, 9, 10, 1)" stroke-width="1.5"></path><path d="M1303.96 -84.8L1308.6 42.44" stroke="rgba(95, 9, 10, 1)" stroke-width="1.5"></path><path d="M1303.96 -84.8L1105.38 -43.38" stroke="rgba(95, 9, 10, 1)" stroke-width="1.5"></path><path d="M1303.96 -84.8L1453.36 69.23" stroke="rgba(95, 9, 10, 1)" stroke-width="1.5"></path><path d="M1303.96 -84.8L1557.31 -90.22" stroke="rgba(95, 9, 10, 1)" stroke-width="1.5"></path><path d="M1303.96 -84.8L1107.08 102.55" stroke="rgba(95, 9, 10, 1)" stroke-width="1.5"></path><path d="M1308.6 42.44L1308.6 42.44" stroke="rgba(95, 9, 10, 1)" stroke-width="1.5"></path><path d="M1308.6 42.44L1400.65 -61.31" stroke="rgba(95, 9, 10, 1)" stroke-width="1.5"></path><path d="M1308.6 42.44L1453.36 69.23" stroke="rgba(95, 9, 10, 1)" stroke-width="1.5"></path><path d="M1238.08 400.13L1238.08 400.13" stroke="rgba(95, 9, 10, 1)" stroke-width="1.5"></path><path d="M1238.08 400.13L1243.52 558.35" stroke="rgba(95, 9, 10, 1)" stroke-width="1.5"></path><path d="M1238.08 400.13L1419.7 401.8" stroke="rgba(95, 9, 10, 1)" stroke-width="1.5"></path><path d="M1238.08 400.13L1155.08 213.96" stroke="rgba(95, 9, 10, 1)" stroke-width="1.5"></path><path d="M1243.52 558.35L1243.52 558.35" stroke="rgba(95, 9, 10, 1)" stroke-width="1.5"></path><path d="M1243.52 558.35L1302.35 687.25" stroke="rgba(95, 9, 10, 1)" stroke-width="1.5"></path><path d="M1302.35 687.25L1302.35 687.25" stroke="rgba(95, 9, 10, 1)" stroke-width="1.5"></path><path d="M1302.35 687.25L1422.72 650.53" stroke="rgba(95, 9, 10, 1)" stroke-width="1.5"></path><path d="M1302.35 687.25L1446.37 527.22" stroke="rgba(95, 9, 10, 1)" stroke-width="1.5"></path><path d="M1302.35 687.25L1541.58 687.11" stroke="rgba(95, 9, 10, 1)" stroke-width="1.5"></path><path d="M1302.35 687.25L1152.38 498.76" stroke="rgba(95, 9, 10, 1)" stroke-width="1.5"></path><path d="M1400.65 -61.31L1400.65 -61.31" stroke="rgba(95, 9, 10, 1)" stroke-width="1.5"></path><path d="M1400.65 -61.31L1453.36 69.23" stroke="rgba(95, 9, 10, 1)" stroke-width="1.5"></path><path d="M1453.36 69.23L1453.36 69.23" stroke="rgba(95, 9, 10, 1)" stroke-width="1.5"></path><path d="M1453.36 69.23L1540.28 73.11" stroke="rgba(95, 9, 10, 1)" stroke-width="1.5"></path><path d="M1456.73 225.77L1456.73 225.77" stroke="rgba(95, 9, 10, 1)" stroke-width="1.5"></path><path d="M1456.73 225.77L1580.57 192.73" stroke="rgba(95, 9, 10, 1)" stroke-width="1.5"></path><path d="M1456.73 225.77L1453.36 69.23" stroke="rgba(95, 9, 10, 1)" stroke-width="1.5"></path><path d="M1456.73 225.77L1540.28 73.11" stroke="rgba(95, 9, 10, 1)" stroke-width="1.5"></path><path d="M1456.73 225.77L1419.7 401.8" stroke="rgba(95, 9, 10, 1)" stroke-width="1.5"></path><path d="M1456.73 225.77L1599.38 352.28" stroke="rgba(95, 9, 10, 1)" stroke-width="1.5"></path><path d="M1456.73 225.77L1308.6 42.44" stroke="rgba(95, 9, 10, 1)" stroke-width="1.5"></path><path d="M1419.7 401.8L1419.7 401.8" stroke="rgba(95, 9, 10, 1)" stroke-width="1.5"></path><path d="M1419.7 401.8L1446.37 527.22" stroke="rgba(95, 9, 10, 1)" stroke-width="1.5"></path><path d="M1419.7 401.8L1599.38 352.28" stroke="rgba(95, 9, 10, 1)" stroke-width="1.5"></path><path d="M1419.7 401.8L1243.52 558.35" stroke="rgba(95, 9, 10, 1)" stroke-width="1.5"></path><path d="M1419.7 401.8L1596.72 557.56" stroke="rgba(95, 9, 10, 1)" stroke-width="1.5"></path><path d="M1446.37 527.22L1446.37 527.22" stroke="rgba(95, 9, 10, 1)" stroke-width="1.5"></path><path d="M1446.37 527.22L1422.72 650.53" stroke="rgba(95, 9, 10, 1)" stroke-width="1.5"></path><path d="M1446.37 527.22L1596.72 557.56" stroke="rgba(95, 9, 10, 1)" stroke-width="1.5"></path><path d="M1446.37 527.22L1541.58 687.11" stroke="rgba(95, 9, 10, 1)" stroke-width="1.5"></path><path d="M1446.37 527.22L1243.52 558.35" stroke="rgba(95, 9, 10, 1)" stroke-width="1.5"></path><path d="M1422.72 650.53L1422.72 650.53" stroke="rgba(95, 9, 10, 1)" stroke-width="1.5"></path><path d="M1422.72 650.53L1541.58 687.11" stroke="rgba(95, 9, 10, 1)" stroke-width="1.5"></path><path d="M1557.31 -90.22L1557.31 -90.22" stroke="rgba(95, 9, 10, 1)" stroke-width="1.5"></path><path d="M1557.31 -90.22L1400.65 -61.31" stroke="rgba(95, 9, 10, 1)" stroke-width="1.5"></path><path d="M1557.31 -90.22L1540.28 73.11" stroke="rgba(95, 9, 10, 1)" stroke-width="1.5"></path><path d="M1557.31 -90.22L1453.36 69.23" stroke="rgba(95, 9, 10, 1)" stroke-width="1.5"></path><path d="M1540.28 73.11L1540.28 73.11" stroke="rgba(95, 9, 10, 1)" stroke-width="1.5"></path><path d="M1540.28 73.11L1580.57 192.73" stroke="rgba(95, 9, 10, 1)" stroke-width="1.5"></path><path d="M1580.57 192.73L1580.57 192.73" stroke="rgba(95, 9, 10, 1)" stroke-width="1.5"></path><path d="M1580.57 192.73L1599.38 352.28" stroke="rgba(95, 9, 10, 1)" stroke-width="1.5"></path><path d="M1580.57 192.73L1453.36 69.23" stroke="rgba(95, 9, 10, 1)" stroke-width="1.5"></path><path d="M1580.57 192.73L1419.7 401.8" stroke="rgba(95, 9, 10, 1)" stroke-width="1.5"></path><path d="M1580.57 192.73L1557.31 -90.22" stroke="rgba(95, 9, 10, 1)" stroke-width="1.5"></path><path d="M1599.38 352.28L1599.38 352.28" stroke="rgba(95, 9, 10, 1)" stroke-width="1.5"></path><path d="M1596.72 557.56L1596.72 557.56" stroke="rgba(95, 9, 10, 1)" stroke-width="1.5"></path><path d="M1596.72 557.56L1541.58 687.11" stroke="rgba(95, 9, 10, 1)" stroke-width="1.5"></path><path d="M1596.72 557.56L1422.72 650.53" stroke="rgba(95, 9, 10, 1)" stroke-width="1.5"></path><path d="M1596.72 557.56L1599.38 352.28" stroke="rgba(95, 9, 10, 1)" stroke-width="1.5"></path><path d="M1596.72 557.56L1302.35 687.25" stroke="rgba(95, 9, 10, 1)" stroke-width="1.5"></path><path d="M1541.58 687.11L1541.58 687.11" stroke="rgba(95, 9, 10, 1)" stroke-width="1.5"></path><circle r="5" cx="-50.12" cy="398.31" fill="rgba(95, 9, 10, 1)"></circle><circle r="5" cx="-39.28" cy="529.83" fill="rgba(95, 9, 10, 1)"></circle><circle r="5" cx="-44.63" cy="678.89" fill="rgba(95, 9, 10, 1)"></circle><circle r="5" cx="96.22" cy="338.49" fill="rgba(95, 9, 10, 1)"></circle><circle r="5" cx="90.95" cy="521.02" fill="rgba(95, 9, 10, 1)"></circle><circle r="5" cx="58.41" cy="643.61" fill="rgba(95, 9, 10, 1)"></circle><circle r="5" cx="226.69" cy="404.58" fill="rgba(95, 9, 10, 1)"></circle><circle r="5" cx="254.98" cy="534.72" fill="rgba(95, 9, 10, 1)"></circle><circle r="5" cx="200.2" cy="679.18" fill="rgba(95, 9, 10, 1)"></circle><circle r="5" cx="388.82" cy="385.31" fill="rgba(95, 9, 10, 1)"></circle><circle r="5" cx="369.65" cy="512.04" fill="rgba(95, 9, 10, 1)"></circle><circle r="5" cx="411.37" cy="676.82" fill="rgba(95, 9, 10, 1)"></circle><circle r="5" cx="557.3" cy="388.7" fill="rgba(95, 9, 10, 1)"></circle><circle r="5" cx="525.86" cy="543.09" fill="rgba(95, 9, 10, 1)"></circle><circle r="5" cx="521.71" cy="665.57" fill="rgba(95, 9, 10, 1)"></circle><circle r="5" cx="659.52" cy="236.95" fill="rgba(95, 9, 10, 1)"></circle><circle r="5" cx="641.99" cy="339.02" fill="rgba(95, 9, 10, 1)"></circle><circle r="5" cx="657.46" cy="524.24" fill="rgba(95, 9, 10, 1)"></circle><circle r="5" cx="641.63" cy="683.37" fill="rgba(95, 9, 10, 1)"></circle><circle r="5" cx="826.82" cy="195.48" fill="rgba(95, 9, 10, 1)"></circle><circle r="5" cx="795.09" cy="371.9" fill="rgba(95, 9, 10, 1)"></circle><circle r="5" cx="834.23" cy="557.97" fill="rgba(95, 9, 10, 1)"></circle><circle r="5" cx="793.43" cy="705.57" fill="rgba(95, 9, 10, 1)"></circle><circle r="5" cx="981.69" cy="-43.01" fill="rgba(95, 9, 10, 1)"></circle><circle r="5" cx="948.64" cy="39.2" fill="rgba(95, 9, 10, 1)"></circle><circle r="5" cx="987.08" cy="195.3" fill="rgba(95, 9, 10, 1)"></circle><circle r="5" cx="971.87" cy="344.64" fill="rgba(95, 9, 10, 1)"></circle><circle r="5" cx="1007.27" cy="494.77" fill="rgba(95, 9, 10, 1)"></circle><circle r="5" cx="1105.38" cy="-43.38" fill="rgba(95, 9, 10, 1)"></circle><circle r="5" cx="1107.08" cy="102.55" fill="rgba(95, 9, 10, 1)"></circle><circle r="5" cx="1155.08" cy="213.96" fill="rgba(95, 9, 10, 1)"></circle><circle r="5" cx="1088.6" cy="373.85" fill="rgba(95, 9, 10, 1)"></circle><circle r="5" cx="1152.38" cy="498.76" fill="rgba(95, 9, 10, 1)"></circle><circle r="5" cx="1136.01" cy="673.53" fill="rgba(95, 9, 10, 1)"></circle><circle r="5" cx="1303.96" cy="-84.8" fill="rgba(95, 9, 10, 1)"></circle><circle r="5" cx="1308.6" cy="42.44" fill="rgba(95, 9, 10, 1)"></circle><circle r="5" cx="1238.08" cy="400.13" fill="rgba(95, 9, 10, 1)"></circle><circle r="5" cx="1243.52" cy="558.35" fill="rgba(95, 9, 10, 1)"></circle><circle r="5" cx="1302.35" cy="687.25" fill="rgba(95, 9, 10, 1)"></circle><circle r="5" cx="1400.65" cy="-61.31" fill="rgba(95, 9, 10, 1)"></circle><circle r="5" cx="1453.36" cy="69.23" fill="rgba(95, 9, 10, 1)"></circle><circle r="5" cx="1456.73" cy="225.77" fill="rgba(95, 9, 10, 1)"></circle><circle r="5" cx="1419.7" cy="401.8" fill="rgba(95, 9, 10, 1)"></circle><circle r="5" cx="1446.37" cy="527.22" fill="rgba(95, 9, 10, 1)"></circle><circle r="5" cx="1422.72" cy="650.53" fill="rgba(95, 9, 10, 1)"></circle><circle r="5" cx="1557.31" cy="-90.22" fill="rgba(95, 9, 10, 1)"></circle><circle r="5" cx="1540.28" cy="73.11" fill="rgba(95, 9, 10, 1)"></circle><circle r="5" cx="1580.57" cy="192.73" fill="rgba(95, 9, 10, 1)"></circle><circle r="5" cx="1599.38" cy="352.28" fill="rgba(95, 9, 10, 1)"></circle><circle r="5" cx="1596.72" cy="557.56" fill="rgba(95, 9, 10, 1)"></circle><circle r="5" cx="1541.58" cy="687.11" fill="rgba(95, 9, 10, 1)"></circle><path d="M1255.62 546.96L1255.62 546.96" stroke="hsl(40.80000000000001, 36.1%, 92.5%)" stroke-width="1.5"></path><path d="M1255.62 546.96L1282.11 656.71" stroke="hsl(40.80000000000001, 36.1%, 92.5%)" stroke-width="1.5"></path><path d="M1255.62 546.96L1152.33 667.17" stroke="hsl(40.80000000000001, 36.1%, 92.5%)" stroke-width="1.5"></path><path d="M1255.62 546.96L1430.93 536.04" stroke="hsl(40.80000000000001, 36.1%, 92.5%)" stroke-width="1.5"></path><path d="M1282.11 656.71L1282.11 656.71" stroke="hsl(40.80000000000001, 36.1%, 92.5%)" stroke-width="1.5"></path><path d="M1282.11 656.71L1398.59 689.17" stroke="hsl(40.80000000000001, 36.1%, 92.5%)" stroke-width="1.5"></path><path d="M1430.93 536.04L1430.93 536.04" stroke="hsl(40.80000000000001, 36.1%, 92.5%)" stroke-width="1.5"></path><path d="M1430.93 536.04L1395.85 411.95" stroke="hsl(40.80000000000001, 36.1%, 92.5%)" stroke-width="1.5"></path><path d="M1430.93 536.04L1559.23 491.76" stroke="hsl(40.80000000000001, 36.1%, 92.5%)" stroke-width="1.5"></path><path d="M1430.93 536.04L1398.59 689.17" stroke="hsl(40.80000000000001, 36.1%, 92.5%)" stroke-width="1.5"></path><path d="M1430.93 536.04L1554.97 646.86" stroke="hsl(40.80000000000001, 36.1%, 92.5%)" stroke-width="1.5"></path><path d="M1554.97 646.86L1554.97 646.86" stroke="hsl(40.80000000000001, 36.1%, 92.5%)" stroke-width="1.5"></path><path d="M1554.97 646.86L1559.23 491.76" stroke="hsl(40.80000000000001, 36.1%, 92.5%)" stroke-width="1.5"></path><path d="M1554.97 646.86L1398.59 689.17" stroke="hsl(40.80000000000001, 36.1%, 92.5%)" stroke-width="1.5"></path><path d="M1554.97 646.86L1606.92 381.42" stroke="hsl(40.80000000000001, 36.1%, 92.5%)" stroke-width="1.5"></path><path d="M-103.44 519.76L-103.44 519.76" stroke="hsl(40.80000000000001, 36.1%, 92.5%)" stroke-width="1.5"></path><path d="M-103.44 519.76L-58.59 648.22" stroke="hsl(40.80000000000001, 36.1%, 92.5%)" stroke-width="1.5"></path><path d="M-103.44 519.76L105.72 534.01" stroke="hsl(40.80000000000001, 36.1%, 92.5%)" stroke-width="1.5"></path><path d="M-103.44 519.76L53.53 690.7" stroke="hsl(40.80000000000001, 36.1%, 92.5%)" stroke-width="1.5"></path><path d="M-103.44 519.76L193.64 516.46" stroke="hsl(40.80000000000001, 36.1%, 92.5%)" stroke-width="1.5"></path><path d="M-103.44 519.76L203.76 655.59" stroke="hsl(40.80000000000001, 36.1%, 92.5%)" stroke-width="1.5"></path><path d="M-103.44 519.76L383.85 544.02" stroke="hsl(40.80000000000001, 36.1%, 92.5%)" stroke-width="1.5"></path><path d="M-58.59 648.22L-58.59 648.22" stroke="hsl(40.80000000000001, 36.1%, 92.5%)" stroke-width="1.5"></path><path d="M-58.59 648.22L53.53 690.7" stroke="hsl(40.80000000000001, 36.1%, 92.5%)" stroke-width="1.5"></path><path d="M-58.59 648.22L105.72 534.01" stroke="hsl(40.80000000000001, 36.1%, 92.5%)" stroke-width="1.5"></path><path d="M-58.59 648.22L203.76 655.59" stroke="hsl(40.80000000000001, 36.1%, 92.5%)" stroke-width="1.5"></path><path d="M-58.59 648.22L193.64 516.46" stroke="hsl(40.80000000000001, 36.1%, 92.5%)" stroke-width="1.5"></path><path d="M-58.59 648.22L389.15 651.6" stroke="hsl(40.80000000000001, 36.1%, 92.5%)" stroke-width="1.5"></path><path d="M105.72 534.01L105.72 534.01" stroke="hsl(40.80000000000001, 36.1%, 92.5%)" stroke-width="1.5"></path><path d="M105.72 534.01L193.64 516.46" stroke="hsl(40.80000000000001, 36.1%, 92.5%)" stroke-width="1.5"></path><path d="M105.72 534.01L203.76 655.59" stroke="hsl(40.80000000000001, 36.1%, 92.5%)" stroke-width="1.5"></path><path d="M105.72 534.01L53.53 690.7" stroke="hsl(40.80000000000001, 36.1%, 92.5%)" stroke-width="1.5"></path><path d="M53.53 690.7L53.53 690.7" stroke="hsl(40.80000000000001, 36.1%, 92.5%)" stroke-width="1.5"></path><path d="M53.53 690.7L203.76 655.59" stroke="hsl(40.80000000000001, 36.1%, 92.5%)" stroke-width="1.5"></path><path d="M53.53 690.7L193.64 516.46" stroke="hsl(40.80000000000001, 36.1%, 92.5%)" stroke-width="1.5"></path><path d="M193.64 516.46L193.64 516.46" stroke="hsl(40.80000000000001, 36.1%, 92.5%)" stroke-width="1.5"></path><path d="M193.64 516.46L203.76 655.59" stroke="hsl(40.80000000000001, 36.1%, 92.5%)" stroke-width="1.5"></path><path d="M193.64 516.46L383.85 544.02" stroke="hsl(40.80000000000001, 36.1%, 92.5%)" stroke-width="1.5"></path><path d="M203.76 655.59L203.76 655.59" stroke="hsl(40.80000000000001, 36.1%, 92.5%)" stroke-width="1.5"></path><path d="M203.76 655.59L389.15 651.6" stroke="hsl(40.80000000000001, 36.1%, 92.5%)" stroke-width="1.5"></path><path d="M203.76 655.59L383.85 544.02" stroke="hsl(40.80000000000001, 36.1%, 92.5%)" stroke-width="1.5"></path><path d="M383.85 544.02L383.85 544.02" stroke="hsl(40.80000000000001, 36.1%, 92.5%)" stroke-width="1.5"></path><path d="M383.85 544.02L389.15 651.6" stroke="hsl(40.80000000000001, 36.1%, 92.5%)" stroke-width="1.5"></path><path d="M383.85 544.02L499.88 489.25" stroke="hsl(40.80000000000001, 36.1%, 92.5%)" stroke-width="1.5"></path><path d="M383.85 544.02L487.71 701.56" stroke="hsl(40.80000000000001, 36.1%, 92.5%)" stroke-width="1.5"></path><path d="M389.15 651.6L389.15 651.6" stroke="hsl(40.80000000000001, 36.1%, 92.5%)" stroke-width="1.5"></path><path d="M389.15 651.6L487.71 701.56" stroke="hsl(40.80000000000001, 36.1%, 92.5%)" stroke-width="1.5"></path><path d="M389.15 651.6L499.88 489.25" stroke="hsl(40.80000000000001, 36.1%, 92.5%)" stroke-width="1.5"></path><path d="M499.88 489.25L499.88 489.25" stroke="hsl(40.80000000000001, 36.1%, 92.5%)" stroke-width="1.5"></path><path d="M499.88 489.25L676 553.46" stroke="hsl(40.80000000000001, 36.1%, 92.5%)" stroke-width="1.5"></path><path d="M487.71 701.56L487.71 701.56" stroke="hsl(40.80000000000001, 36.1%, 92.5%)" stroke-width="1.5"></path><path d="M487.71 701.56L660.84 701.77" stroke="hsl(40.80000000000001, 36.1%, 92.5%)" stroke-width="1.5"></path><path d="M487.71 701.56L499.88 489.25" stroke="hsl(40.80000000000001, 36.1%, 92.5%)" stroke-width="1.5"></path><path d="M676 553.46L676 553.46" stroke="hsl(40.80000000000001, 36.1%, 92.5%)" stroke-width="1.5"></path><path d="M676 553.46L808.73 522.89" stroke="hsl(40.80000000000001, 36.1%, 92.5%)" stroke-width="1.5"></path><path d="M676 553.46L660.84 701.77" stroke="hsl(40.80000000000001, 36.1%, 92.5%)" stroke-width="1.5"></path><path d="M676 553.46L822.76 688.16" stroke="hsl(40.80000000000001, 36.1%, 92.5%)" stroke-width="1.5"></path><path d="M676 553.46L831.94 400.07" stroke="hsl(40.80000000000001, 36.1%, 92.5%)" stroke-width="1.5"></path><path d="M660.84 701.77L660.84 701.77" stroke="hsl(40.80000000000001, 36.1%, 92.5%)" stroke-width="1.5"></path><path d="M660.84 701.77L822.76 688.16" stroke="hsl(40.80000000000001, 36.1%, 92.5%)" stroke-width="1.5"></path><path d="M660.84 701.77L808.73 522.89" stroke="hsl(40.80000000000001, 36.1%, 92.5%)" stroke-width="1.5"></path><path d="M660.84 701.77L499.88 489.25" stroke="hsl(40.80000000000001, 36.1%, 92.5%)" stroke-width="1.5"></path><path d="M831.94 400.07L831.94 400.07" stroke="hsl(40.80000000000001, 36.1%, 92.5%)" stroke-width="1.5"></path><path d="M831.94 400.07L808.73 522.89" stroke="hsl(40.80000000000001, 36.1%, 92.5%)" stroke-width="1.5"></path><path d="M831.94 400.07L961.2 371.42" stroke="hsl(40.80000000000001, 36.1%, 92.5%)" stroke-width="1.5"></path><path d="M831.94 400.07L945.28 534.86" stroke="hsl(40.80000000000001, 36.1%, 92.5%)" stroke-width="1.5"></path><path d="M831.94 400.07L981.91 238.79" stroke="hsl(40.80000000000001, 36.1%, 92.5%)" stroke-width="1.5"></path><path d="M808.73 522.89L808.73 522.89" stroke="hsl(40.80000000000001, 36.1%, 92.5%)" stroke-width="1.5"></path><path d="M808.73 522.89L945.28 534.86" stroke="hsl(40.80000000000001, 36.1%, 92.5%)" stroke-width="1.5"></path><path d="M822.76 688.16L822.76 688.16" stroke="hsl(40.80000000000001, 36.1%, 92.5%)" stroke-width="1.5"></path><path d="M822.76 688.16L808.73 522.89" stroke="hsl(40.80000000000001, 36.1%, 92.5%)" stroke-width="1.5"></path><path d="M822.76 688.16L1004.4 686.49" stroke="hsl(40.80000000000001, 36.1%, 92.5%)" stroke-width="1.5"></path><path d="M822.76 688.16L945.28 534.86" stroke="hsl(40.80000000000001, 36.1%, 92.5%)" stroke-width="1.5"></path><path d="M981.91 238.79L981.91 238.79" stroke="hsl(40.80000000000001, 36.1%, 92.5%)" stroke-width="1.5"></path><path d="M981.91 238.79L961.2 371.42" stroke="hsl(40.80000000000001, 36.1%, 92.5%)" stroke-width="1.5"></path><path d="M981.91 238.79L1138.74 262.11" stroke="hsl(40.80000000000001, 36.1%, 92.5%)" stroke-width="1.5"></path><path d="M961.2 371.42L961.2 371.42" stroke="hsl(40.80000000000001, 36.1%, 92.5%)" stroke-width="1.5"></path><path d="M961.2 371.42L1094.94 366.22" stroke="hsl(40.80000000000001, 36.1%, 92.5%)" stroke-width="1.5"></path><path d="M961.2 371.42L945.28 534.86" stroke="hsl(40.80000000000001, 36.1%, 92.5%)" stroke-width="1.5"></path><path d="M961.2 371.42L1138.74 262.11" stroke="hsl(40.80000000000001, 36.1%, 92.5%)" stroke-width="1.5"></path><path d="M961.2 371.42L808.73 522.89" stroke="hsl(40.80000000000001, 36.1%, 92.5%)" stroke-width="1.5"></path><path d="M945.28 534.86L945.28 534.86" stroke="hsl(40.80000000000001, 36.1%, 92.5%)" stroke-width="1.5"></path><path d="M945.28 534.86L1004.4 686.49" stroke="hsl(40.80000000000001, 36.1%, 92.5%)" stroke-width="1.5"></path><path d="M1004.4 686.49L1004.4 686.49" stroke="hsl(40.80000000000001, 36.1%, 92.5%)" stroke-width="1.5"></path><path d="M1004.4 686.49L1152.33 667.17" stroke="hsl(40.80000000000001, 36.1%, 92.5%)" stroke-width="1.5"></path><path d="M1004.4 686.49L808.73 522.89" stroke="hsl(40.80000000000001, 36.1%, 92.5%)" stroke-width="1.5"></path><path d="M1004.4 686.49L1282.11 656.71" stroke="hsl(40.80000000000001, 36.1%, 92.5%)" stroke-width="1.5"></path><path d="M1129.51 89.96L1129.51 89.96" stroke="hsl(40.80000000000001, 36.1%, 92.5%)" stroke-width="1.5"></path><path d="M1129.51 89.96L1138.74 262.11" stroke="hsl(40.80000000000001, 36.1%, 92.5%)" stroke-width="1.5"></path><path d="M1129.51 89.96L1311.49 92.67" stroke="hsl(40.80000000000001, 36.1%, 92.5%)" stroke-width="1.5"></path><path d="M1129.51 89.96L981.91 238.79" stroke="hsl(40.80000000000001, 36.1%, 92.5%)" stroke-width="1.5"></path><path d="M1129.51 89.96L1298.88 238.84" stroke="hsl(40.80000000000001, 36.1%, 92.5%)" stroke-width="1.5"></path><path d="M1138.74 262.11L1138.74 262.11" stroke="hsl(40.80000000000001, 36.1%, 92.5%)" stroke-width="1.5"></path><path d="M1138.74 262.11L1094.94 366.22" stroke="hsl(40.80000000000001, 36.1%, 92.5%)" stroke-width="1.5"></path><path d="M1138.74 262.11L1246.45 359.29" stroke="hsl(40.80000000000001, 36.1%, 92.5%)" stroke-width="1.5"></path><path d="M1138.74 262.11L1298.88 238.84" stroke="hsl(40.80000000000001, 36.1%, 92.5%)" stroke-width="1.5"></path><path d="M1094.94 366.22L1094.94 366.22" stroke="hsl(40.80000000000001, 36.1%, 92.5%)" stroke-width="1.5"></path><path d="M1094.94 366.22L1246.45 359.29" stroke="hsl(40.80000000000001, 36.1%, 92.5%)" stroke-width="1.5"></path><path d="M1094.94 366.22L981.91 238.79" stroke="hsl(40.80000000000001, 36.1%, 92.5%)" stroke-width="1.5"></path><path d="M1094.94 366.22L945.28 534.86" stroke="hsl(40.80000000000001, 36.1%, 92.5%)" stroke-width="1.5"></path><path d="M1152.33 667.17L1152.33 667.17" stroke="hsl(40.80000000000001, 36.1%, 92.5%)" stroke-width="1.5"></path><path d="M1152.33 667.17L1282.11 656.71" stroke="hsl(40.80000000000001, 36.1%, 92.5%)" stroke-width="1.5"></path><path d="M1307.25 -84.55L1307.25 -84.55" stroke="hsl(40.80000000000001, 36.1%, 92.5%)" stroke-width="1.5"></path><path d="M1307.25 -84.55L1420.72 -92.92" stroke="hsl(40.80000000000001, 36.1%, 92.5%)" stroke-width="1.5"></path><path d="M1307.25 -84.55L1311.49 92.67" stroke="hsl(40.80000000000001, 36.1%, 92.5%)" stroke-width="1.5"></path><path d="M1307.25 -84.55L1389.83 77.15" stroke="hsl(40.80000000000001, 36.1%, 92.5%)" stroke-width="1.5"></path><path d="M1307.25 -84.55L1129.51 89.96" stroke="hsl(40.80000000000001, 36.1%, 92.5%)" stroke-width="1.5"></path><path d="M1307.25 -84.55L1555.11 38.17" stroke="hsl(40.80000000000001, 36.1%, 92.5%)" stroke-width="1.5"></path><path d="M1307.25 -84.55L1588.01 -69.02" stroke="hsl(40.80000000000001, 36.1%, 92.5%)" stroke-width="1.5"></path><path d="M1311.49 92.67L1311.49 92.67" stroke="hsl(40.80000000000001, 36.1%, 92.5%)" stroke-width="1.5"></path><path d="M1311.49 92.67L1389.83 77.15" stroke="hsl(40.80000000000001, 36.1%, 92.5%)" stroke-width="1.5"></path><path d="M1311.49 92.67L1298.88 238.84" stroke="hsl(40.80000000000001, 36.1%, 92.5%)" stroke-width="1.5"></path><path d="M1311.49 92.67L1405.88 228.75" stroke="hsl(40.80000000000001, 36.1%, 92.5%)" stroke-width="1.5"></path><path d="M1311.49 92.67L1420.72 -92.92" stroke="hsl(40.80000000000001, 36.1%, 92.5%)" stroke-width="1.5"></path><path d="M1298.88 238.84L1298.88 238.84" stroke="hsl(40.80000000000001, 36.1%, 92.5%)" stroke-width="1.5"></path><path d="M1298.88 238.84L1405.88 228.75" stroke="hsl(40.80000000000001, 36.1%, 92.5%)" stroke-width="1.5"></path><path d="M1298.88 238.84L1246.45 359.29" stroke="hsl(40.80000000000001, 36.1%, 92.5%)" stroke-width="1.5"></path><path d="M1246.45 359.29L1246.45 359.29" stroke="hsl(40.80000000000001, 36.1%, 92.5%)" stroke-width="1.5"></path><path d="M1420.72 -92.92L1420.72 -92.92" stroke="hsl(40.80000000000001, 36.1%, 92.5%)" stroke-width="1.5"></path><path d="M1420.72 -92.92L1588.01 -69.02" stroke="hsl(40.80000000000001, 36.1%, 92.5%)" stroke-width="1.5"></path><path d="M1420.72 -92.92L1389.83 77.15" stroke="hsl(40.80000000000001, 36.1%, 92.5%)" stroke-width="1.5"></path><path d="M1420.72 -92.92L1555.11 38.17" stroke="hsl(40.80000000000001, 36.1%, 92.5%)" stroke-width="1.5"></path><path d="M1389.83 77.15L1389.83 77.15" stroke="hsl(40.80000000000001, 36.1%, 92.5%)" stroke-width="1.5"></path><path d="M1389.83 77.15L1405.88 228.75" stroke="hsl(40.80000000000001, 36.1%, 92.5%)" stroke-width="1.5"></path><path d="M1389.83 77.15L1555.11 38.17" stroke="hsl(40.80000000000001, 36.1%, 92.5%)" stroke-width="1.5"></path><path d="M1405.88 228.75L1405.88 228.75" stroke="hsl(40.80000000000001, 36.1%, 92.5%)" stroke-width="1.5"></path><path d="M1405.88 228.75L1395.85 411.95" stroke="hsl(40.80000000000001, 36.1%, 92.5%)" stroke-width="1.5"></path><path d="M1405.88 228.75L1591.46 202.38" stroke="hsl(40.80000000000001, 36.1%, 92.5%)" stroke-width="1.5"></path><path d="M1405.88 228.75L1246.45 359.29" stroke="hsl(40.80000000000001, 36.1%, 92.5%)" stroke-width="1.5"></path><path d="M1395.85 411.95L1395.85 411.95" stroke="hsl(40.80000000000001, 36.1%, 92.5%)" stroke-width="1.5"></path><path d="M1395.85 411.95L1246.45 359.29" stroke="hsl(40.80000000000001, 36.1%, 92.5%)" stroke-width="1.5"></path><path d="M1395.85 411.95L1559.23 491.76" stroke="hsl(40.80000000000001, 36.1%, 92.5%)" stroke-width="1.5"></path><path d="M1398.59 689.17L1398.59 689.17" stroke="hsl(40.80000000000001, 36.1%, 92.5%)" stroke-width="1.5"></path><path d="M1588.01 -69.02L1588.01 -69.02" stroke="hsl(40.80000000000001, 36.1%, 92.5%)" stroke-width="1.5"></path><path d="M1588.01 -69.02L1555.11 38.17" stroke="hsl(40.80000000000001, 36.1%, 92.5%)" stroke-width="1.5"></path><path d="M1588.01 -69.02L1389.83 77.15" stroke="hsl(40.80000000000001, 36.1%, 92.5%)" stroke-width="1.5"></path><path d="M1555.11 38.17L1555.11 38.17" stroke="hsl(40.80000000000001, 36.1%, 92.5%)" stroke-width="1.5"></path><path d="M1555.11 38.17L1591.46 202.38" stroke="hsl(40.80000000000001, 36.1%, 92.5%)" stroke-width="1.5"></path><path d="M1591.46 202.38L1591.46 202.38" stroke="hsl(40.80000000000001, 36.1%, 92.5%)" stroke-width="1.5"></path><path d="M1591.46 202.38L1606.92 381.42" stroke="hsl(40.80000000000001, 36.1%, 92.5%)" stroke-width="1.5"></path><path d="M1591.46 202.38L1389.83 77.15" stroke="hsl(40.80000000000001, 36.1%, 92.5%)" stroke-width="1.5"></path><path d="M1606.92 381.42L1606.92 381.42" stroke="hsl(40.80000000000001, 36.1%, 92.5%)" stroke-width="1.5"></path><path d="M1606.92 381.42L1559.23 491.76" stroke="hsl(40.80000000000001, 36.1%, 92.5%)" stroke-width="1.5"></path><path d="M1606.92 381.42L1395.85 411.95" stroke="hsl(40.80000000000001, 36.1%, 92.5%)" stroke-width="1.5"></path><path d="M1559.23 491.76L1559.23 491.76" stroke="hsl(40.80000000000001, 36.1%, 92.5%)" stroke-width="1.5"></path><circle r="25" cx="1255.62" cy="546.96" fill="url(&quot;#SvgjsRadialGradient1007&quot;)"></circle><circle r="25" cx="1282.11" cy="656.71" fill="url(&quot;#SvgjsRadialGradient1007&quot;)"></circle><circle r="25" cx="1430.93" cy="536.04" fill="url(&quot;#SvgjsRadialGradient1007&quot;)"></circle><circle r="25" cx="1554.97" cy="646.86" fill="url(&quot;#SvgjsRadialGradient1007&quot;)"></circle><circle r="5" cx="-103.44" cy="519.76" fill="#e8dfcd"></circle><circle r="5" cx="-58.59" cy="648.22" fill="#e8dfcd"></circle><circle r="5" cx="105.72" cy="534.01" fill="#e8dfcd"></circle><circle r="5" cx="53.53" cy="690.7" fill="#e8dfcd"></circle><circle r="5" cx="193.64" cy="516.46" fill="#e8dfcd"></circle><circle r="5" cx="203.76" cy="655.59" fill="#e8dfcd"></circle><circle r="5" cx="383.85" cy="544.02" fill="#e8dfcd"></circle><circle r="5" cx="389.15" cy="651.6" fill="#e8dfcd"></circle><circle r="5" cx="499.88" cy="489.25" fill="#e8dfcd"></circle><circle r="5" cx="487.71" cy="701.56" fill="#e8dfcd"></circle><circle r="5" cx="676" cy="553.46" fill="#e8dfcd"></circle><circle r="5" cx="660.84" cy="701.77" fill="#e8dfcd"></circle><circle r="5" cx="831.94" cy="400.07" fill="#e8dfcd"></circle><circle r="5" cx="808.73" cy="522.89" fill="#e8dfcd"></circle><circle r="5" cx="822.76" cy="688.16" fill="#e8dfcd"></circle><circle r="5" cx="981.91" cy="238.79" fill="#e8dfcd"></circle><circle r="5" cx="961.2" cy="371.42" fill="#e8dfcd"></circle><circle r="5" cx="945.28" cy="534.86" fill="#e8dfcd"></circle><circle r="5" cx="1004.4" cy="686.49" fill="#e8dfcd"></circle><circle r="5" cx="1129.51" cy="89.96" fill="#e8dfcd"></circle><circle r="5" cx="1138.74" cy="262.11" fill="#e8dfcd"></circle><circle r="5" cx="1094.94" cy="366.22" fill="#e8dfcd"></circle><circle r="5" cx="1152.33" cy="667.17" fill="#e8dfcd"></circle><circle r="5" cx="1307.25" cy="-84.55" fill="#e8dfcd"></circle><circle r="5" cx="1311.49" cy="92.67" fill="#e8dfcd"></circle><circle r="5" cx="1298.88" cy="238.84" fill="#e8dfcd"></circle><circle r="5" cx="1246.45" cy="359.29" fill="#e8dfcd"></circle><circle r="5" cx="1420.72" cy="-92.92" fill="#e8dfcd"></circle><circle r="5" cx="1389.83" cy="77.15" fill="#e8dfcd"></circle><circle r="5" cx="1405.88" cy="228.75" fill="#e8dfcd"></circle><circle r="5" cx="1395.85" cy="411.95" fill="#e8dfcd"></circle><circle r="5" cx="1398.59" cy="689.17" fill="#e8dfcd"></circle><circle r="5" cx="1588.01" cy="-69.02" fill="#e8dfcd"></circle><circle r="5" cx="1555.11" cy="38.17" fill="#e8dfcd"></circle><circle r="5" cx="1591.46" cy="202.38" fill="#e8dfcd"></circle><circle r="5" cx="1606.92" cy="381.42" fill="#e8dfcd"></circle><circle r="5" cx="1559.23" cy="491.76" fill="#e8dfcd"></circle></g><defs><mask id="SvgjsMask1006"><rect width="1440" height="560" fill="#ffffff"></rect></mask><radialGradient id="SvgjsRadialGradient1007"><stop stop-color="#ffffff" offset="0.1"></stop><stop stop-color="rgba(208, 191, 155, 1)" offset="0.2"></stop><stop stop-color="rgba(208, 191, 155, 0)" offset="1"></stop></radialGradient></defs></svg>