<svg id="visual" viewBox="0 0 900 600" width="900" height="600" xmlns="http://www.w3.org/2000/svg" xmlns:xlink="http://www.w3.org/1999/xlink" version="1.1"><path d="M0 447L21.5 440.8C43 434.7 86 422.3 128.8 413.2C171.7 404 214.3 398 257.2 388.3C300 378.7 343 365.3 385.8 374.2C428.7 383 471.3 414 514.2 427.7C557 441.3 600 437.7 642.8 430.5C685.7 423.3 728.3 412.7 771.2 413.2C814 413.7 857 425.3 878.5 431.2L900 437L900 601L878.5 601C857 601 814 601 771.2 601C728.3 601 685.7 601 642.8 601C600 601 557 601 514.2 601C471.3 601 428.7 601 385.8 601C343 601 300 601 257.2 601C214.3 601 171.7 601 128.8 601C86 601 43 601 21.5 601L0 601Z" fill="#d0bf9b"></path><path d="M0 458L21.5 451.7C43 445.3 86 432.7 128.8 427C171.7 421.3 214.3 422.7 257.2 428.3C300 434 343 444 385.8 442.2C428.7 440.3 471.3 426.7 514.2 427C557 427.3 600 441.7 642.8 442.7C685.7 443.7 728.3 431.3 771.2 434.2C814 437 857 455 878.5 464L900 473L900 601L878.5 601C857 601 814 601 771.2 601C728.3 601 685.7 601 642.8 601C600 601 557 601 514.2 601C471.3 601 428.7 601 385.8 601C343 601 300 601 257.2 601C214.3 601 171.7 601 128.8 601C86 601 43 601 21.5 601L0 601Z" fill="#b4936c"></path><path d="M0 490L21.5 483C43 476 86 462 128.8 453.3C171.7 444.7 214.3 441.3 257.2 443.8C300 446.3 343 454.7 385.8 460.5C428.7 466.3 471.3 469.7 514.2 477.5C557 485.3 600 497.7 642.8 503C685.7 508.3 728.3 506.7 771.2 506.2C814 505.7 857 506.3 878.5 506.7L900 507L900 601L878.5 601C857 601 814 601 771.2 601C728.3 601 685.7 601 642.8 601C600 601 557 601 514.2 601C471.3 601 428.7 601 385.8 601C343 601 300 601 257.2 601C214.3 601 171.7 601 128.8 601C86 601 43 601 21.5 601L0 601Z" fill="#996843"></path><path d="M0 526L21.5 523.5C43 521 86 516 128.8 513.3C171.7 510.7 214.3 510.3 257.2 512.7C300 515 343 520 385.8 523.3C428.7 526.7 471.3 528.3 514.2 530.2C557 532 600 534 642.8 532C685.7 530 728.3 524 771.2 523.3C814 522.7 857 527.3 878.5 529.7L900 532L900 601L878.5 601C857 601 814 601 771.2 601C728.3 601 685.7 601 642.8 601C600 601 557 601 514.2 601C471.3 601 428.7 601 385.8 601C343 601 300 601 257.2 601C214.3 601 171.7 601 128.8 601C86 601 43 601 21.5 601L0 601Z" fill="#7d3c23"></path><path d="M0 530L21.5 533.2C43 536.3 86 542.7 128.8 548C171.7 553.3 214.3 557.7 257.2 555.8C300 554 343 546 385.8 543C428.7 540 471.3 542 514.2 541.5C557 541 600 538 642.8 542.2C685.7 546.3 728.3 557.7 771.2 559.5C814 561.3 857 553.7 878.5 549.8L900 546L900 601L878.5 601C857 601 814 601 771.2 601C728.3 601 685.7 601 642.8 601C600 601 557 601 514.2 601C471.3 601 428.7 601 385.8 601C343 601 300 601 257.2 601C214.3 601 171.7 601 128.8 601C86 601 43 601 21.5 601L0 601Z" fill="#5f090a"></path></svg>